<?xml version="1.0" encoding="UTF-8"?>
<svg width="389px" height="89px" viewBox="0 0 389 89" version="1.1" xmlns="http://www.w3.org/2000/svg" xmlns:xlink="http://www.w3.org/1999/xlink">
    <!-- Generator: Sketch 48.1 (47250) - http://www.bohemiancoding.com/sketch -->
    <title>Page 1</title>
    <desc>Created with Sketch.</desc>
    <defs>
        <polygon id="path-1" points="0.0169639135 0.477815642 34.5204476 0.477815642 34.5204476 88.9999184 0.0169639135 88.9999184"></polygon>
    </defs>
    <g id="Desktop-1366" stroke="none" stroke-width="1" fill="none" fill-rule="evenodd" transform="translate(-93.000000, -180.000000)">
        <g id="Group-2" transform="translate(93.000000, 180.000000)">
            <g id="Page-1">
                <path d="M15.5617611,75.1668475 C15.660362,75.4626763 15.660362,75.2654571 15.7589629,75.3640667 C15.7589629,76.9418203 16.5477701,77.8293068 16.5477701,79.3084508 C16.5477701,81.2806429 18.3225863,83.9431023 18.0267836,85.8166847 C17.63238,86.2111232 17.2379764,85.9152943 17.1393755,86.013904 C16.0547656,86.8027808 12.5051332,86.3097328 11.2233215,86.506952 C10.0401107,86.7041712 8.85689984,86.8027808 7.67368903,86.6050685 C7.27928543,86.506952 4.0254557,86.4083424 3.63105209,86.506952 C2.44784128,86.506952 1.46183227,86.4083424 0.574917168,85.4222463 C0.475823263,82.8583966 1.85623588,81.5764717 2.44784128,78.9140124 C2.64504308,78.1251356 3.13804759,75.8571147 3.13804759,75.0682378 L3.13804759,73.3918746 C3.03944669,70.9266345 2.94084579,68.4613943 3.03944669,65.9961542 C3.13804759,64.9119416 3.13804759,63.9258456 3.13804759,62.9397495 C3.23664849,60.3754068 3.23664849,57.9101667 3.23664849,55.34681 L3.43385029,50.4163298 C3.53245119,50.0218913 3.23664849,49.8246721 3.23664849,49.5288433 C3.43385029,48.4441377 3.53245119,47.359432 3.53245119,46.2747264 C3.43385029,44.4011439 3.53245119,42.4289518 3.53245119,40.4567597 C3.63105209,38.0901292 3.43385029,35.7234987 3.63105209,33.3573612 C3.72965299,30.7930184 3.53245119,28.2296618 3.53245119,25.7644217 C3.63105209,24.4824968 3.53245119,23.2991815 3.53245119,22.1158663 C3.53245119,19.946455 3.72965299,17.8756533 3.53245119,15.706242 L3.53245119,14.3257075 C3.53245119,13.2410019 3.13804759,13.7340499 3.13804759,12.6493442 C3.33524939,10.7757618 1.75763497,9.5924465 1.56043317,7.71886402 C1.65903407,7.52164481 0.377222362,4.85918548 0.278621461,4.66196628 L0.0819126639,4.07030865 C-0.115782142,3.77447983 0.0819126639,2.98609605 0.278621461,2.68977418 C0.673025065,2 3.92685479,2.59116458 4.8142629,2.59116458 C7.77228993,2.49304802 10.730317,2.59116458 13.7869449,2.39394537 L16.7449719,2.19672616 C17.2379764,2.49304802 17.8295818,2.59116458 18.3225863,3.18282221 C17.4351782,5.05640469 17.0407746,7.02859679 16.4491692,9.3952273 C16.5477701,11.1702002 15.5617611,12.3535154 15.660362,13.5368307 C15.660362,13.7340499 15.4631602,14.1284883 15.2659584,14.2270979 C15.8575638,14.6215363 15.5617611,16.1006804 15.4631602,16.4951188 C15.2659584,17.0867765 15.3645593,17.5798245 15.3645593,18.1714821 C15.4631602,19.8478454 15.4631602,19.6506262 15.2659584,21.3269894 C15.1673575,23.4964007 15.5617611,25.6658121 15.660362,27.8347303 C15.660362,29.906025 15.0687566,32.0754363 15.4631602,34.2443546 C15.660362,35.6248891 15.3645593,38.2873484 14.674353,38.7803964 C16.4491692,38.7803964 18.0267836,38.5831772 19.604398,38.7803964 C20.4918061,38.879006 21.2806134,39.0762252 22.1680215,38.879006 C22.7596269,38.6817868 23.4498332,39.1748348 23.9428377,38.4845676 C24.1395465,36.3151563 24.2386404,34.0476284 24.2386404,31.8782171 C24.1395465,30.2999704 24.3372413,28.7227098 24.2386404,27.1449561 C24.1395465,24.9755448 24.632551,22.7075239 24.2386404,20.5381126 C24.0414386,19.1575781 24.2386404,17.7770437 24.0414386,16.3965092 C23.8442368,15.706242 24.1395465,14.8187555 24.2386404,14.2270979 C24.4358422,12.8465635 23.7456359,12.9451731 23.8442368,11.6632482 C23.8442368,10.4799329 23.1535375,9.29661769 23.1535375,8.11330244 C23.1535375,6.73276797 21.7736179,4.56335667 21.7736179,3.18282221 C22.0694206,2.59116458 22.4638242,2.49304802 22.9568287,2.49304802 C25.3232503,2.59116458 30.1546944,2.09811656 32.5206231,2.29582881 C33.4080312,2.39394537 37.3520672,2 38.2394753,2 C38.6338789,2 38.7324798,2.19672616 38.9296816,2.19672616 C39.4226861,4.26752786 37.1548654,6.83137758 37.3520672,9.00078888 C37.2534663,9.19800809 36.4646591,11.7618578 36.3660582,12.1562962 C36.0702555,13.2410019 36.1688564,13.1423923 35.9716546,14.2270979 C35.8730537,14.6215363 35.7744528,14.6215363 35.8730537,15.0159748 C35.9716546,16.0020708 35.7744528,17.0867765 35.8730537,18.0728725 C35.8730537,19.0589685 36.1688564,19.946455 36.2674573,21.0311606 C36.2674573,23.7922296 36.3660582,26.6519081 36.4646591,29.5110936 C36.56326,30.7930184 36.1688564,32.1735529 36.7604618,33.3573612 C35.9716546,34.4415738 36.56326,35.7234987 36.3660582,36.9068139 C36.2674573,37.9920126 36.0702555,39.2734444 36.1688564,40.4567597 C36.1688564,41.6400749 36.2674573,42.8233902 36.2674573,44.0067055 C36.0702555,46.1761168 36.0702555,48.3455281 35.9716546,50.5149394 L35.6758519,51.4024258 C36.1688564,54.0648851 35.6758519,56.6287348 35.8730537,59.093975 C35.8730537,59.1925846 35.577251,59.2911942 35.6758519,59.2911942 C35.6758519,62.2494823 36.0702555,65.1091608 35.6758519,68.2641751 C35.7744528,68.3627847 36.1688564,68.8558328 35.9716546,69.2502712 C35.6758519,69.9405384 36.0702555,70.4335864 35.9716546,71.0252441 C35.8730537,71.5182921 35.9716546,72.1099497 35.8730537,72.7016073 L35.8730537,74.3779706 C35.8730537,74.8710186 36.2674573,75.1668475 35.577251,75.5612859 C36.3660582,76.8432107 37.3520672,79.7028893 36.4646591,80.5903757 C36.56326,80.8862045 36.7604618,80.7875949 36.8590627,80.6889853 C37.6478699,82.5625678 39.1268834,84.6328764 38.8310807,86.4083424 C38.535278,86.9013904 37.9436726,86.6050685 37.549269,87 C36.4646591,86.506952 32.3239143,86.8027808 31.1407034,86.7041712 C29.8588917,86.7041712 28.6756809,86.8027808 27.4924701,86.7041712 C26.3087663,86.6050685 22.660533,87.0981166 21.675017,86.3097328 C21.5764161,85.9152943 21.4778152,86.1120205 22.0694206,84.5347599 C22.4638242,83.252835 22.9568287,78.7167932 23.3512323,77.533478 C23.7456359,76.2515531 24.0414386,75.7585051 24.1395465,74.4765802 C24.2386404,71.3210729 24.2386404,68.1655655 24.1395465,65.0100582 C24.3372413,64.6161128 23.9428377,64.4188936 24.0414386,64.0239621 C24.1395465,61.6578247 23.8442368,59.2911942 23.7456359,57.0231733 C23.7456359,56.6287348 23.7456359,56.2342964 23.9428377,55.7412484 C24.1395465,55.4454196 24.1395465,54.9523716 24.0414386,54.4593235 C23.9428377,53.5718371 23.646542,52.6843507 23.9428377,51.6982546 C24.1395465,51.2052066 23.7456359,50.7121586 23.646542,50.1205009 C22.2666224,50.1205009 20.8862098,49.9232817 19.604398,50.2191105 C18.3225863,50.5149394 17.1393755,50.2191105 15.660362,50.1205009 C16.1533665,58.4032147 15.2659584,66.6864215 15.9561647,74.9696282 L15.5617611,75.1668475 Z" id="Fill-1" fill="#FFFFFF"></path>
                <g id="Group-5" transform="translate(43.000000, 0.000000)">
                    <mask id="mask-2" fill="white">
                        <use xlink:href="#path-1"></use>
                    </mask>
                    <g id="Clip-4"></g>
                    <path d="M21.88225,74.7670603 C21.98225,72.8776749 22.28225,71.0877307 22.08225,69.0989039 C21.98225,67.0106358 22.18225,64.9223676 22.08225,62.8340994 C22.08225,62.5357754 22.18225,62.3368927 22.28225,62.1380101 C22.38225,61.541362 22.48225,60.8452726 22.48225,60.2486246 C22.38225,57.4647642 22.28225,54.6804067 22.28225,51.9954905 C22.38225,49.0122503 22.38225,46.0290101 22.38225,43.0457698 C22.28225,39.5653229 22.48225,36.084876 22.38225,32.6044291 C22.28225,30.0189542 22.28225,27.4334793 22.38225,24.8485017 C22.38225,22.6607922 22.28225,20.5720268 22.48225,18.4842559 C22.58225,16.8931944 22.78225,15.2026916 22.08225,13.7110715 C21.98225,13.5121888 22.18225,13.3133061 22.28225,13.0149821 C21.48225,13.1144235 21.28225,12.4183341 20.78225,12.1200101 C19.38225,12.2194514 18.18225,11.9211274 16.78225,11.7222447 C16.18225,12.0205687 15.48225,12.4183341 14.68225,12.7166581 C13.48225,13.1144235 12.88225,14.0093955 13.08225,15.302133 C13.18225,15.600457 13.08225,15.7993397 13.08225,15.9982223 C13.08225,17.3904011 12.88225,18.8820212 13.28225,20.1747587 C13.18225,20.5720268 13.08225,20.870848 13.08225,21.2681162 C12.98225,22.0636469 12.88225,22.958619 13.08225,23.6552056 C13.48225,24.7485631 12.98225,26.6379486 12.98225,27.7318034 L12.98225,40.3608536 C12.98225,42.4491218 12.48225,44.835714 12.88225,46.8245408 C13.28225,48.8133676 12.88225,50.8021944 12.78225,52.7910212 C12.78225,54.6804067 12.38225,56.6692335 13.08225,58.5581218 C13.08225,58.9558872 12.28225,58.7570045 12.58225,59.2542112 C12.68225,59.2542112 12.88225,59.2542112 12.98225,59.3536525 C13.08225,61.9391274 13.08225,64.4251609 12.98225,67.0106358 C12.88225,68.0050492 12.78225,69.1983453 12.88225,70.1927587 C13.08225,71.5849374 13.08225,72.9771162 12.98225,74.369295 C12.98225,75.0653844 12.98225,75.7614737 13.08225,76.0597978 C14.38225,77.3525352 15.48225,78.1480659 16.98225,78.4463899 C18.08225,78.6452726 19.08225,78.8441553 20.18225,77.9491832 C20.68225,77.4519765 21.08225,76.8553285 21.68225,76.4575631 C21.88225,75.8609151 21.88225,75.264267 21.88225,74.7670603 M34.48175,34.8915799 C33.98225,36.979848 34.18225,39.0681162 34.18225,41.1563844 C34.18225,41.4547084 34.08175,41.8524737 34.08175,42.2502391 C33.78175,43.9407419 34.28175,45.730686 34.18225,47.5206302 C34.18225,49.1116916 34.38225,50.7027531 34.28175,52.2938145 C34.08175,53.8843788 34.28175,55.4759374 34.28175,56.9675575 C34.38225,58.3592391 34.38225,59.7514179 34.28175,61.1435966 C34.08175,63.1324235 34.08175,65.1212503 34.38225,67.1100771 C34.48175,68.0050492 34.58175,68.8005799 34.28175,69.695552 C33.98225,70.7894067 34.38225,71.7838201 34.38225,72.8776749 C34.38225,74.667619 34.48175,76.5570045 34.18225,78.3469486 C33.88225,79.5402447 33.58175,80.7335408 33.18225,81.8273955 C32.98225,82.5234849 32.58175,83.3190156 31.68225,83.6168425 C31.58175,83.716781 31.48225,83.6168425 31.48225,83.8162223 C31.48225,84.6112559 30.88225,84.9095799 30.28225,85.4067866 C27.48225,87.6944346 24.28225,88.8872335 20.58225,88.9871721 C17.48225,89.0861162 14.58225,88.5889095 11.58225,88.1916413 C11.18225,88.0917028 11.08225,87.5944961 10.68225,87.5944961 L9.18225,87.5944961 C7.98225,86.7994626 6.68225,86.5011385 5.58225,85.6056693 C3.38225,83.8162223 2.08225,81.9268369 1.18275,79.1424793 C0.78225,77.8497419 0.58225,76.2586804 0.78225,74.965943 C0.78225,74.1704123 0.88225,73.3748816 0.78225,72.6787922 C0.68275,71.3860547 0.68275,70.0933173 0.68275,68.8005799 L0.48275,60.8452726 C0.28225,57.9614737 0.38225,54.9787307 0.48275,52.0944346 C0.48275,49.9067251 0.38225,47.7195128 0.08225,45.5318034 C-0.01725,44.5373899 -0.01725,43.5429765 0.18275,42.5485631 C0.48275,41.4547084 0.48275,40.2614123 0.48275,39.1675575 C0.48275,38.0737028 0.48275,36.8804067 0.38225,35.6871106 C0.38225,35.1899039 0.58225,34.7921385 0.98275,34.4938145 C0.38225,33.3999598 0.48275,32.306105 0.38225,31.2122503 C0.28225,29.6211888 0.38225,27.930686 0.38225,26.3401218 L0.68275,18.6831385 C0.68275,18.0859933 0.98275,17.4898425 0.98275,16.8931944 C0.88225,15.600457 1.18275,14.3077196 0.58225,13.0149821 C1.48275,12.3188927 1.48275,11.3244793 1.88225,10.4295073 C3.28225,6.94906034 5.78225,4.76135084 9.18225,3.26973073 C10.58225,2.67308268 11.98225,1.9769933 13.48225,1.08202123 C14.48225,1.18146257 15.68225,0.982579888 16.88225,0.584814525 C17.78225,0.286490503 18.68225,0.684255866 19.58225,0.883138547 C20.88225,1.08202123 22.18225,1.18146257 23.38225,1.28090391 C24.38225,1.38034525 24.98225,1.87755196 25.68225,2.27531732 C26.78225,2.87196536 27.88225,3.26973073 28.88225,3.96582011 C30.88225,5.35799888 32.48225,6.94906034 33.38225,9.43509385 C34.08175,11.225038 34.08175,13.0149821 34.28175,14.9043676 C34.48175,15.9982223 34.38225,17.1915184 34.38225,18.2853732 C34.28175,21.1691721 33.78175,24.1524123 34.28175,27.035714 C34.38225,27.4334793 34.18225,27.930686 34.18225,28.3289486 C34.08175,29.7206302 34.28175,31.1128089 34.38225,32.4055464 C34.48175,33.0021944 34.78175,33.6982838 33.98225,34.1954905 C34.18225,34.3943732 34.48175,34.4938145 34.48175,34.8915799" id="Fill-3" fill="#FFFFFF" mask="url(#mask-2)"></path>
                </g>
                <path d="M103.129155,13.8193722 C101.154422,13.6223826 98.8834781,14.0163617 97.0074812,13.5238879 C96.4150611,14.2133513 96.7112712,15.1982989 96.6125345,16.1832466 L96.5137978,19.1380897 C96.7112712,21.0094903 96.8100078,21.2064798 96.8100078,23.0773879 C96.8100078,24.0623356 96.8100078,25.1457781 96.6125345,26.1307257 C96.4150611,27.0171786 96.5137978,27.904124 96.5137978,28.7900845 C96.5137978,29.7750322 96.2175878,30.7599798 96.7112712,31.7449275 C96.8100078,31.9419171 96.8100078,32.2374014 96.7112712,32.5328857 C96.7112712,33.1238543 96.5137978,33.7148229 96.7112712,34.4042863 C97.0074812,35.0937496 96.5137978,35.8817078 97.0074812,36.5711712 C97.6986379,36.7681607 98.3897947,37.063645 99.0809514,37.063645 C99.9695815,37.2606345 100.956948,37.1621398 101.845578,37.1621398 L104.313995,36.1771921 L106.288729,33.3208438 L106.288729,23.0773879 C106.189992,20.714006 105.696309,18.3501315 105.400099,15.9862571 L105.005152,15.1982989 L103.129155,13.8193722 Z M82.6911567,2 C85.3565533,2.09849477 90.6883339,2.09849477 93.0580141,2.09849477 C95.3289577,2.09849477 97.6986379,2 99.9695815,2.19698954 C102.339262,2.39397907 104.807679,1.50752616 107.177359,2.49247384 C107.769779,2.19698954 108.362199,2.19698954 109.152092,2.2954843 C110.929353,2.98494768 112.706119,3.96989536 114.384643,5.15183258 C115.273766,6.43226457 116.458607,7.71269656 116.95229,9.38710761 C117.445973,11.1600134 117.840426,12.9329193 117.840426,14.8043199 C117.939657,17.2666891 117.939657,19.7290583 117.939657,22.2899222 C117.840426,23.7673438 117.840426,25.1457781 117.544216,26.6231996 C117.2485,28.1991159 117.14927,29.7750322 117.742183,31.3509484 C117.939657,31.9419171 117.939657,32.6313804 117.742183,33.222349 C117.346743,33.9118124 117.544216,34.6997706 117.840426,35.4877287 C117.2485,37.063645 117.544216,39.0335404 116.655586,40.7079514 C115.76745,42.2838677 114.58261,43.5642997 113.496506,44.9432265 C112.212436,46.420648 110.435669,46.8146271 108.658409,47.5040904 C108.658409,47.7995747 108.460936,48.095059 108.559672,48.3905433 C109.547039,52.5273236 110.435669,56.7625986 111.916719,60.8988864 C112.904086,63.6567399 113.693486,66.5130882 114.483873,69.3694365 C114.680853,70.3543842 114.977556,71.2408371 115.372009,72.2257848 C115.964923,73.8017011 116.161903,73.9001958 116.458607,75.4761121 C116.655586,76.4610598 117.445973,77.8399866 117.840426,78.7264395 C118.63032,80.5978401 120.506317,84.3406413 121,86.4085389 L120.308843,87 C119.51895,86.9010128 117.742183,86.6055285 116.95229,86.6055285 C116.06366,86.6055285 115.273766,86.9010128 114.483873,86.8030105 C112.212436,86.5075262 107.078622,87 104.807679,86.4085389 C104.610205,86.1130546 104.313995,85.8180628 104.313995,85.4235912 C104.313995,83.4536959 105.202625,81.2873034 104.511469,79.5143976 C103.820312,77.8399866 105.103889,76.9535336 104.511469,75.2791226 C104.215259,74.3926697 103.721575,72.0287952 103.524102,71.1423423 C102.339262,67.3995411 101.944315,63.5582452 100.759475,59.815444 C100.068318,57.5500643 99.6733715,55.1866823 98.9822147,52.9208102 C98.587268,51.6408707 97.7973746,50.3604387 97.1062179,48.8830172 C96.8100078,50.1634492 96.9087445,51.1483969 96.9087445,52.0348498 C96.9087445,53.7092608 96.8100078,55.3831794 97.0074812,56.9595882 C97.1062179,58.7320015 96.8100078,60.6038946 96.9087445,62.376308 C97.1062179,64.1492138 96.8100078,65.8236248 96.9087445,67.5965307 C96.9087445,69.172447 97.0074812,70.846858 97.0074812,72.5212691 C97.0074812,74.3926697 96.6125345,72.9152481 96.9087445,74.7866487 C96.5137978,76.0670807 97.7973746,78.3324604 97.6986379,79.6128924 C97.5999013,80.8933244 100.364528,84.2421465 100.364528,85.4235912 C100.364528,85.719568 100.265792,86.0150523 100.265792,86.4085389 C96.3163245,87.0980023 89.5034938,86.6055285 85.5540267,86.7045157 C84.5666599,86.1130546 82,87.4924738 82,85.8180628 C82.1974734,84.6356331 83.9747335,80.203861 83.9747335,79.0219238 C83.9747335,77.8399866 85.1595737,75.968586 85.1595737,74.7866487 C85.1595737,72.6197638 85.1595737,70.9453528 85.0603433,68.7784679 C85.0603433,67.7935202 84.8628699,66.8085725 84.9621003,65.8236248 C85.0603433,64.8386772 84.9621003,63.9522242 84.9621003,63.0662638 C84.8628699,61.7853393 85.2578167,60.5049074 85.1595737,59.2244754 C85.0603433,57.3530748 85.45529,55.4821667 85.2578167,53.5122713 C85.0603433,51.4433887 85.2578167,49.4739858 85.2578167,47.4055957 C85.2578167,45.4357003 85.1595737,43.4658049 85.1595737,41.5944043 C85.1595737,38.8365508 85.2578167,36.1771921 85.2578167,33.5178333 C85.2578167,32.9268647 85.3565533,32.4343909 85.45529,31.8434223 C85.5540267,30.3660008 85.9489734,28.7900845 85.3565533,27.2141682 C85.1595737,26.8201891 85.3565533,26.1307257 85.2578167,25.6382519 C85.0603433,24.2598176 85.45529,22.8803984 85.1595737,21.5019641 C84.9621003,20.2215321 85.1595737,18.7441106 85.1595737,17.3651838 C85.1595737,16.0847519 85.0603433,14.8043199 85.1595737,13.5238879 C85.1595737,12.1449611 84.0729765,12.0464664 84.0729765,10.6675396 C84.0729765,8.79613901 82.29621,5.44731689 82,3.37892675 C82.1974734,2.68946338 82.394453,2.19698954 82.6911567,2 Z" id="Fill-6" fill="#FFFFFF"></path>
                <path d="M156.526024,80.6500735 C155.622005,82.6381512 155.019326,84.1287125 153.914414,85.3215592 C153.211289,86.0178834 152.909949,86.315598 152.106377,87.0119223 C151.503698,87.4095378 150.801074,87.6078486 149.997,87.6078486 L147.887623,88.5029806 C147.586785,88.5029806 147.184497,88.5029806 146.883157,88.6018874 C145.878692,88.9005961 144.573389,88.7017883 143.568924,89 C141.861333,88.9005961 141.66044,88.9005961 139.852402,89 C138.647044,89 136.537667,87.9065572 135.332309,87.7077495 C134.830076,87.6078486 134.42829,87.3096369 133.926057,87.1108291 C132.218466,86.1167903 133.222932,87.0119223 131.716234,85.520864 C130.812215,84.5268251 126.794354,89.9940389 124.684977,88.3036758 C124.383637,88.0059611 124.684977,87.5089417 124.484083,87.0119223 C124.28319,86.8126175 124.484083,77.9661686 124.28319,77.4691491 C124.383637,71.3061081 123.680511,67.5287604 124.182744,60.9681039 C124.58453,59.8751582 125.890335,60.0739659 126.995247,59.8751582 C127.698372,59.7752573 130.510875,59.974065 131.214001,59.974065 C131.013108,59.974065 131.615787,59.974065 131.81668,60.9681039 C132.017573,61.8627389 133.524271,66.2365099 133.524271,66.3359138 C133.423825,67.1311449 134.629183,69.4174343 134.930523,70.1132615 C135.030969,70.4114731 135.633648,72.6977625 135.834541,72.9959742 C136.939453,74.7852442 135.332309,73.5923975 136.939453,75.1828597 C137.240793,75.4810714 139.149277,77.3697452 139.651509,77.4691491 L141.861333,77.4691491 C143.166636,77.568553 144.372496,76.4751103 144.974673,75.1828597 C144.974673,74.9840519 144.774282,74.6858403 144.774282,74.4870325 C145.577855,73.3935898 145.175566,73.0953781 145.175566,71.9025315 C145.175566,70.2126654 145.376459,66.7335293 144.974673,65.0436633 C144.874227,64.5466438 144.774282,64.0501214 144.573389,63.7514127 C142.664403,60.2722767 141.158207,56.6942338 138.947881,53.4139055 C137.542132,51.22702 136.638113,48.7419228 135.332309,46.4556334 C133.825611,44.0699401 133.022038,41.2866313 131.013108,39.1991497 C130.510875,38.7021302 130.410429,37.9068992 130.109089,37.3104758 C129.606856,36.2170331 128.803284,35.2229942 128.501945,34.0301476 C128.100159,32.3402815 126.995247,30.9486271 126.493014,29.3581649 C126.292121,28.6623377 124.484083,25.4814133 124.28319,23.7920442 C123.981851,22.0022772 124.082297,20.6111199 124.082297,18.8218499 C123.981851,17.827811 124.383637,16.933176 124.182744,16.0385411 C123.981851,15.3427138 123.981851,14.6468866 124.28319,14.0504633 C124.785423,13.0564244 124.986316,11.9629817 125.187209,10.8695389 C125.488549,9.27907674 126.392568,7.78801844 127.597926,6.5951718 C128.501945,5.70053682 129.20507,4.50769017 130.410429,3.81186297 C131.615787,3.11603576 132.821145,2.12199689 134.42829,2.12199689 C135.332309,2.12199689 136.336774,1.72438134 137.341239,1.42616968 C138.847937,0.929150245 140.454579,0.829746358 141.961277,1.32676579 C142.46351,1.42616968 142.965743,1.22736191 143.467975,1.32676579 C145.276515,1.62497745 146.481371,1.82378523 148.289911,2.42020855 C149.997,2.91722798 149.997,3.31484353 151.302805,4.50769017 C151.805037,4.90530572 153.211289,3.41424742 155.320666,1.92318911 C156.023791,1.42616968 157.028257,1.52557357 157.22915,1.82378523 C157.932275,3.11603576 157.530489,9.97490395 157.731382,11.5653661 C157.831829,12.1617895 158.032722,12.559405 157.630936,13.0564244 C157.932275,14.2492711 158.233615,15.4421177 157.731382,16.2373488 C157.329596,20.4123121 157.22915,24.2890637 157.731382,28.1653182 C157.329596,28.4635299 157.128703,28.7622386 156.726917,28.5634308 C156.626471,28.4635299 156.425578,28.4635299 156.325131,28.4635299 C154.115307,29.1593571 151.905484,28.2652191 149.796609,28.4635299 C148.590748,28.5634308 147.485836,28.364126 146.380925,28.7622386 C145.376459,27.8671066 144.974673,26.8730677 145.376459,25.5813142 C145.577855,25.1832016 145.276515,24.6861822 145.276515,24.1891628 C145.075622,22.1021782 145.476906,20.0141995 145.376459,17.9272149 C145.276515,16.933176 145.376459,15.9391372 145.276515,14.9450983 C145.276515,14.2492711 144.472441,13.9510594 144.673334,13.1558283 C143.267584,13.1558283 142.16217,12.3605972 140.555528,12.4600011 C139.852402,12.9570206 138.546598,12.6588089 137.441686,13.1558283 C137.441686,13.7522517 136.73856,13.8516555 136.537667,14.5474828 C136.236327,15.9391372 136.135881,18.4242343 136.336774,19.9152926 C136.537667,21.0082384 136.537667,22.1021782 136.537667,23.1951239 C136.537667,23.7920442 136.638113,24.2890637 136.939453,24.885487 C137.341239,25.8795259 137.441686,26.1772405 137.642579,27.1712794 C138.144811,28.8611454 139.249723,29.1593571 139.952347,30.7503163 C140.153742,30.9486271 140.354635,31.1474348 140.354635,31.3462426 C140.956812,33.1355126 141.961277,34.8253787 142.865798,36.4158408 C143.467975,37.5092836 144.171101,38.4039186 144.874227,39.3979575 C145.677799,40.690208 146.080087,42.0818624 146.883157,43.3741129 C148.389855,45.6604023 149.69566,47.1514606 151.001465,49.6365578 C152.00593,51.4258278 152.809502,52.121655 153.713521,53.9109249 C154.818433,55.7991018 156.92781,60.0739659 157.22915,62.4591622 C157.329596,63.2543933 157.530489,64.0501214 157.530489,64.8448555 C157.430043,66.137106 157.731382,68.2245876 157.630936,69.5168382 C157.630936,71.0078965 157.22915,72.4989548 157.329596,73.9900131 C157.430043,75.4810714 157.028257,76.9721297 157.028257,78.463188 C156.726917,79.6560346 156.726917,80.0536502 156.526024,80.6500735" id="Fill-8" fill="#FFFFFF"></path>
                <path d="M164.357602,2.32600484 C165.732871,2.32600484 170.055142,2.72145473 171.332176,2.52372978 C174.082713,2.12827989 176.832758,2.62259226 179.583785,2.12827989 C180.958562,1.93055494 182.432063,2.12827989 183.905565,2.32600484 C184.396732,2.42486731 184.887899,2.22714236 185.4773,2.12827989 C185.968467,2.12827989 185.772,2.02941742 186.361401,2.22714236 C187.736669,1.63396752 189.013704,2.42486731 189.799571,2.12827989 C190.290738,2.42486731 190.388972,2.8203172 190.585439,3.31462957 C190.192505,4.10552936 190.192505,5.0941541 190.388972,5.98391636 C190.781905,7.36799099 190.290738,8.85092809 190.880139,10.2350027 C190.290738,11.3224899 191.076606,15.4747138 190.585439,16.562201 C189.504871,17.0565134 188.32607,15.6724388 187.343735,15.4747138 C185.968467,15.1781264 184.887899,14.2883641 183.414398,14.2883641 C181.548454,14.2883641 179.779761,14.0906392 178.011559,14.0906392 C177.815092,14.0906392 177.520392,13.9917767 177.226182,14.2883641 L177.226182,16.562201 C177.127949,17.5508258 177.323925,18.5394505 177.127949,19.6269377 C177.127949,19.8241683 177.127949,20.0223876 177.226182,20.3184807 C177.422649,21.2087373 177.520392,22.197362 176.832758,23.0871243 C177.127949,24.075749 177.422649,25.1632362 177.127949,26.3495859 C177.520392,27.1399914 177.619116,28.0297536 177.619116,28.9195159 L177.619116,37.916001 C179.387318,37.916001 179.976228,37.8171385 181.548454,37.8171385 C182.33383,37.8171385 182.824997,37.3228262 184.298499,37.0262387 C184.887899,37.3228262 186.852568,35.9387515 187.441969,36.1364765 C187.245502,37.0262387 187.441969,40.4864253 187.343735,41.2773251 C187.245502,42.7602622 187.933136,43.7488869 187.343735,45.231824 C187.245502,45.5284115 187.441969,46.2204488 187.540202,46.8136236 C187.540202,47.110211 187.540202,47.110211 187.441969,47.307936 C187.441969,47.6045234 187.540202,47.307936 187.638435,47.6045234 C187.441969,48.3954232 187.638435,51.6578848 187.147268,52.4482903 C184.887899,52.0533347 182.530788,50.4715351 180.369652,50.2738102 C179.387318,50.1749477 178.502726,50.2738102 177.520392,50.2738102 C177.127949,52.8442345 177.323925,55.4141645 177.619116,57.7868639 C177.520392,58.4793955 177.029224,58.4793955 176.735015,58.7754886 C176.832758,59.3686634 177.029224,59.9618383 177.029224,60.5550131 C177.127949,61.3459129 177.127949,62.2356752 177.029224,63.1259318 C176.832758,63.8174748 176.735015,64.8060995 177.127949,65.5969993 C177.422649,66.3878991 177.323925,67.0799364 177.323925,67.8708362 C177.127949,69.9469481 177.619116,72.0230601 177.619116,74.296897 C179.779761,74.4946219 181.940896,74.3957594 184.102032,74.3957594 C185.280833,74.296897 188.424303,72.9128223 190.388972,72.220785 C190.487205,72.220785 191.174839,72.0230601 191.371306,72.6162349 C191.666006,74.3957594 191.371306,78.7457083 191.371306,80.7229577 C191.469539,82.0081699 191.469539,83.1945196 191.76424,84.4797317 C192.157173,85.6660814 192.05894,85.6660814 191.469539,86.6547061 C188.129603,87.0496617 184.789666,86.5553494 181.449729,86.5553494 C177.323925,86.6547061 173.100378,86.4569812 168.974574,86.9512936 C167.697539,87.0496617 163.473502,87.0496617 162.196467,86.4569812 C161.607066,84.9740441 163.375268,83.2928877 163.375268,81.7115825 C163.375268,80.2286454 164.84877,76.4718714 165.045236,74.9889343 C165.241703,72.6162349 164.84877,72.220785 165.14347,69.8480856 C165.241703,67.8708362 164.947003,65.8935867 165.241703,64.0151997 C165.536404,61.2470504 165.339937,58.3800387 165.43817,55.6118895 C165.536404,53.1408219 165.339937,50.6692601 165.43817,48.1976982 C165.43817,46.8136236 165.634637,45.3306865 165.536404,43.9466119 C165.43817,41.3761876 165.634637,38.8057633 165.634637,36.1364765 C165.732871,33.5660522 165.634637,30.8967654 165.634637,28.3263411 C165.536404,26.7445415 165.634637,25.1632362 165.831104,23.5814366 C166.125804,22.0984995 165.831104,20.5167 165.634637,18.9349004 C165.536404,17.4519633 165.831104,15.8701637 165.732871,14.3872266 C165.634637,12.6077021 165.536404,13.2997394 165.43817,12.9042895 C165.241703,12.0145272 163.866435,9.64182788 163.768202,8.75206562 C163.768202,7.46685346 162.491167,6.08277883 162.491167,4.6987042 C162.491167,4.40211678 162.098233,3.71007947 162,3.31462957 C162.392934,2.22714236 163.277035,2.32600484 164.357602,2.32600484" id="Fill-10" fill="#FFFFFF"></path>
                <path d="M229.526024,80.6500735 C228.622005,82.6381512 228.019326,84.1287125 226.914414,85.3215592 C226.211289,86.0178834 225.909949,86.315598 225.106377,87.0119223 C224.503698,87.4095378 223.801074,87.6078486 222.997,87.6078486 L220.887623,88.5029806 C220.586785,88.5029806 220.184497,88.5029806 219.883157,88.6018874 C218.878692,88.9005961 217.573389,88.7017883 216.568924,89 C214.861333,88.9005961 214.659938,88.9005961 212.852402,89 C211.647044,89 209.537667,87.9065572 208.332309,87.7077495 C207.830076,87.6078486 207.42829,87.3096369 206.926057,87.1108291 C205.218466,86.1167903 206.222932,87.0119223 204.716234,85.520864 C203.812215,84.5268251 199.794354,89.9940389 197.684977,88.3036758 C197.383637,88.0059611 197.684977,87.5089417 197.484083,87.0119223 C197.28319,86.8126175 197.484083,77.9661686 197.28319,77.4691491 C197.383637,71.3061081 196.680511,67.5287604 197.182744,60.9681039 C197.58453,59.8751582 198.890335,60.0739659 199.995247,59.8751582 C200.698372,59.7752573 203.510875,59.974065 204.214001,59.974065 C204.013108,59.974065 204.615787,59.974065 204.81668,60.9681039 C205.017573,61.8627389 206.524271,66.2365099 206.524271,66.3359138 C206.423825,67.1311449 207.629183,69.4174343 207.930523,70.1132615 C208.030969,70.4114731 208.633648,72.6977625 208.834541,72.9959742 C209.939453,74.7852442 208.332309,73.5923975 209.939453,75.1828597 C210.240793,75.4810714 212.149277,77.3697452 212.651509,77.4691491 L214.861333,77.4691491 C216.166636,77.568553 217.372496,76.4751103 217.974673,75.1828597 C217.974673,74.9840519 217.774282,74.6858403 217.774282,74.4870325 C218.577855,73.3935898 218.175566,73.0953781 218.175566,71.9025315 C218.175566,70.2126654 218.376459,66.7335293 217.974673,65.0436633 C217.874729,64.5466438 217.774282,64.0501214 217.573389,63.7514127 C215.664403,60.2722767 214.158207,56.6942338 211.947881,53.4139055 C210.542132,51.22702 209.638113,48.7419228 208.332309,46.4556334 C206.825611,44.0699401 206.022038,41.2866313 204.013108,39.1991497 C203.510875,38.7021302 203.410429,37.9068992 203.109089,37.3104758 C202.606856,36.2170331 201.803284,35.2229942 201.501945,34.0301476 C201.100159,32.3402815 199.995247,30.9486271 199.493014,29.3581649 C199.292121,28.6623377 197.484083,25.4814133 197.28319,23.7920442 C196.981851,22.0022772 197.082297,20.6111199 197.082297,18.8218499 C196.981851,17.827811 197.383637,16.933176 197.182744,16.0385411 C196.981851,15.3427138 196.981851,14.6468866 197.28319,14.0504633 C197.785423,13.0564244 197.986316,11.9629817 198.187209,10.8695389 C198.488549,9.27907674 199.392568,7.78801844 200.597926,6.5951718 C201.501945,5.70053682 202.20507,4.50769017 203.410429,3.81186297 C204.615787,3.11603576 205.821145,2.12199689 207.42829,2.12199689 C208.332309,2.12199689 209.336774,1.72438134 210.341239,1.42616968 C211.847937,0.929150245 213.454579,0.829746358 214.961277,1.32676579 C215.46351,1.42616968 215.965743,1.22736191 216.467975,1.32676579 C218.276515,1.62497745 219.481371,1.82378523 221.289911,2.42020855 C222.997,2.91722798 222.997,3.31484353 224.303307,4.50769017 C224.805037,4.90530572 226.211289,3.41424742 228.320666,1.92318911 C229.023791,1.42616968 230.028257,1.52557357 230.22915,1.82378523 C230.932275,3.11603576 230.530489,9.97490395 230.731382,11.5653661 C230.831829,12.1617895 231.032722,12.559405 230.630936,13.0564244 C230.932275,14.2492711 231.233615,15.4421177 230.731382,16.2373488 C230.329596,20.4123121 230.22915,24.2890637 230.731382,28.1653182 C230.329596,28.4635299 230.128703,28.7622386 229.726917,28.5634308 C229.626471,28.4635299 229.425578,28.4635299 229.325131,28.4635299 C227.115307,29.1593571 224.905484,28.2652191 222.796609,28.4635299 C221.590748,28.5634308 220.485836,28.364126 219.380925,28.7622386 C218.376459,27.8671066 217.974673,26.8730677 218.376459,25.5813142 C218.577855,25.1832016 218.276515,24.6861822 218.276515,24.1891628 C218.075622,22.1021782 218.476906,20.0141995 218.376459,17.9272149 C218.276515,16.933176 218.376459,15.9391372 218.276515,14.9450983 C218.276515,14.2492711 217.472441,13.9510594 217.673334,13.1558283 C216.267584,13.1558283 215.16217,12.3605972 213.555528,12.4600011 C212.852402,12.9570206 211.546598,12.6588089 210.441686,13.1558283 C210.441686,13.7522517 209.73856,13.8516555 209.537667,14.5474828 C209.236327,15.9391372 209.135881,18.4242343 209.336774,19.9152926 C209.537667,21.0082384 209.537667,22.1021782 209.537667,23.1951239 C209.537667,23.7920442 209.638113,24.2890637 209.939453,24.885487 C210.341239,25.8795259 210.441686,26.1772405 210.642579,27.1712794 C211.144811,28.8611454 212.249723,29.1593571 212.952347,30.7503163 C213.153742,30.9486271 213.354635,31.1474348 213.354635,31.3462426 C213.956812,33.1355126 214.961277,34.8253787 215.865798,36.4158408 C216.467975,37.5092836 217.171101,38.4039186 217.874729,39.3979575 C218.677799,40.690208 219.080087,42.0818624 219.883157,43.3741129 C221.389855,45.6604023 222.69566,47.1514606 224.001465,49.6365578 C225.00593,51.4258278 225.809502,52.121655 226.713521,53.9109249 C227.818433,55.7991018 229.92781,60.0739659 230.22915,62.4591622 C230.329596,63.2543933 230.530489,64.0501214 230.530489,64.8448555 C230.430043,66.137106 230.731382,68.2245876 230.630936,69.5168382 C230.630936,71.0078965 230.22915,72.4989548 230.329596,73.9900131 C230.430043,75.4810714 230.028257,76.9721297 230.028257,78.463188 C229.726917,79.6560346 229.726917,80.0536502 229.526024,80.6500735" id="Fill-12" fill="#FFFFFF"></path>
                <path d="M235.414619,11.0792145 C235.707292,9.69751982 235.609734,8.21713265 235.317062,6.73674548 C235.219504,6.04589813 235.707292,5.15766583 235.317062,4.66420344 C234.829274,3.97384956 235.024389,3.48038717 235.121947,2.88773884 L239.804707,2.88773884 C240.390052,2.88773884 240.780282,2.39427645 241.560743,2.49346239 C242.633875,2.69035388 243.707008,2.49346239 244.78014,2.78953982 C245.17037,2.78953982 245.267928,2.49346239 245.463043,2.39427645 L246.438618,2.88773884 C246.926406,2.29607743 247.609308,2.49346239 248.291723,2.59166141 C251.218448,2.69035388 254.242731,2.19689149 257.169456,2.19689149 C259.218164,2.19689149 261.169314,2.19689149 263.218022,2.09819902 C264.48627,2.09819902 265.754517,2.09819902 267.022765,2 C268.095897,2.49346239 268.095897,3.57858618 267.900782,4.17074105 C267.510552,5.55243574 267.803225,6.83543796 267.705667,8.21713265 C267.60811,9.99359725 267.705667,15.717761 267.803225,17.4942256 C267.120322,17.987688 267.022765,17.1981481 266.632535,17.3955331 C265.461845,17.3955331 262.827792,14.7308362 261.852217,14.5334512 C260.681527,14.2373738 260.583969,13.9412964 259.608394,13.9412964 C258.535261,13.9412964 258.047474,13.5465265 257.169456,14.0399888 C257.462129,15.4216835 257.462129,17.2968406 257.267014,18.5798428 C257.071899,20.06023 256.876784,21.4419247 257.071899,22.9223119 C257.169456,24.2053141 257.071899,25.4883163 257.169456,26.672626 C257.169456,27.0673959 256.974341,27.2647809 256.779226,27.4621658 L257.364571,27.7582433 C257.071899,28.2517057 256.974341,28.7451681 257.267014,29.4360154 C257.559686,30.1268628 257.462129,31.0146016 257.462129,31.8041414 C257.364571,33.2845286 256.876784,34.8636082 257.071899,36.3439954 C257.071899,36.5418738 256.779226,36.7387653 256.681669,36.9361503 C256.779226,37.0353362 256.974341,37.2322277 256.974341,37.3309202 C256.779226,40.7851569 257.364571,44.1407012 257.267014,47.8910153 C256.974341,48.8779401 257.071899,50.3583273 257.071899,51.8387144 C257.071899,52.7269467 257.169456,53.5164866 256.974341,54.4047189 C256.779226,55.0955662 256.974341,55.9837985 256.974341,56.6746459 C257.071899,57.7602631 256.876784,58.7471879 256.876784,59.7341127 C256.876784,61.6087763 256.974341,63.5826259 257.267014,65.5564754 C256.681669,65.9517388 257.462129,66.7407851 256.974341,67.2342475 C257.462129,68.3203583 256.974341,69.405482 257.169456,70.5897918 C257.267014,71.5767166 257.071899,72.6623338 257.267014,73.6492586 C257.364571,74.0440285 257.267014,74.2414135 257.169456,74.6361834 C256.974341,75.1296458 256.876784,75.1296458 257.364571,75.4257232 C257.071899,77.2021878 258.535261,78.48519 258.632819,80.0642697 C258.730377,81.7420418 259.998624,84.4067387 260.583969,85.9858183 C259.998624,87.0714356 256.096324,86.4792807 255.218306,86.6761722 C254.242731,86.9727431 253.267156,87.1696346 252.194023,86.7753582 C251.803793,86.5779732 251.413563,86.8740506 251.023821,86.9727431 L250.437988,86.5779732 C248.77951,86.9727431 243.901635,87.367513 242.243645,86.3805883 C241.365628,85.8871259 242.92606,83.7153979 244.194795,78.0904201 C244.389423,76.3139555 244.975255,76.8074179 244.87721,75.0309533 C244.87721,73.3531812 245.072325,72.3662564 245.072325,70.5897918 C245.072325,68.9120197 244.682583,67.1360485 245.364998,65.3595839 C245.364998,65.260398 245.17037,64.8661215 245.17037,64.4713516 C245.463043,61.6087763 245.463043,58.6484954 245.560113,55.7864136 C245.658158,53.615179 245.364998,51.4439445 245.560113,49.3714025 C245.658158,48.5818627 245.560113,47.7923228 245.463043,46.9040905 C245.17037,45.8184733 245.463043,44.732856 245.364998,43.5485463 C245.267928,41.3773118 245.364998,39.2060773 245.364998,37.0353362 C245.364998,36.0484114 245.463043,35.0614866 245.560113,34.0745619 C245.658158,32.6923737 245.560113,31.21248 245.560113,29.8302919 C245.658158,27.9556282 245.560113,26.0804712 245.658158,24.2053141 C245.755715,23.4157743 245.463043,22.7249269 245.755715,21.8366946 C245.95083,21.1458473 245.658158,20.3563074 245.755715,19.6654601 C245.755715,18.4811504 245.755715,17.3955331 245.95083,16.2112234 C246.0479,15.3229911 245.852785,14.8295287 245.852785,13.8426039 C244.87721,14.0399888 244.78014,13.9412964 243.804565,13.9412964 C242.536318,14.0399888 238.731575,17.2968406 237.073097,17.790303 C235.902407,18.1850729 236.390195,18.1850729 235.609734,18.1850729 C235.121947,17.3955331 235.024389,12.6582942 235.414619,11.0792145" id="Fill-14" fill="#FFFFFF"></path>
                <path d="M292.129155,13.8193722 C290.154422,13.6223826 287.883478,14.0163617 286.007481,13.5238879 C285.415061,14.2133513 285.711271,15.1982989 285.612534,16.1832466 L285.513798,19.1380897 C285.711271,21.0094903 285.810008,21.2064798 285.810008,23.0773879 C285.810008,24.0623356 285.810008,25.1457781 285.612534,26.1307257 C285.415061,27.0171786 285.513798,27.904124 285.513798,28.7900845 C285.513798,29.7750322 285.217588,30.7599798 285.711271,31.7449275 C285.810008,31.9419171 285.810008,32.2374014 285.711271,32.5328857 C285.711271,33.1238543 285.513798,33.7148229 285.711271,34.4042863 C286.007481,35.0937496 285.513798,35.8817078 286.007481,36.5711712 C286.698638,36.7681607 287.389795,37.063645 288.080951,37.063645 C288.969582,37.2606345 289.956948,37.1621398 290.845578,37.1621398 L293.313995,36.1771921 L295.288729,33.3208438 L295.288729,23.0773879 C295.189992,20.714006 294.696309,18.3501315 294.400099,15.9862571 L294.005152,15.1982989 L292.129155,13.8193722 Z M271.691157,2 C274.356553,2.09849477 279.688334,2.09849477 282.058014,2.09849477 C284.328958,2.09849477 286.698638,2 288.969582,2.19698954 C291.339262,2.39397907 293.807679,1.50752616 296.177359,2.49247384 C296.769779,2.19698954 297.362199,2.19698954 298.152092,2.2954843 C299.929353,2.98494768 301.706119,3.96989536 303.384643,5.15183258 C304.273766,6.43226457 305.458607,7.71269656 305.95229,9.38710761 C306.445973,11.1600134 306.840426,12.9329193 306.840426,14.8043199 C306.939657,17.2666891 306.939657,19.7290583 306.939657,22.2899222 C306.840426,23.7673438 306.840426,25.1457781 306.544216,26.6231996 C306.2485,28.1991159 306.14927,29.7750322 306.742183,31.3509484 C306.939657,31.9419171 306.939657,32.6313804 306.742183,33.222349 C306.346743,33.9118124 306.544216,34.6997706 306.840426,35.4877287 C306.2485,37.063645 306.544216,39.0335404 305.655586,40.7079514 C304.76745,42.2838677 303.58261,43.5642997 302.496506,44.9432265 C301.212436,46.420648 299.435669,46.8146271 297.658409,47.5040904 C297.658409,47.7995747 297.460936,48.095059 297.559672,48.3905433 C298.547039,52.5273236 299.435669,56.7625986 300.916719,60.8988864 C301.904086,63.6567399 302.693486,66.5130882 303.483873,69.3694365 C303.680853,70.3543842 303.977556,71.2408371 304.372009,72.2257848 C304.964923,73.8017011 305.161903,73.9001958 305.458607,75.4761121 C305.655586,76.4610598 306.445973,77.8399866 306.840426,78.7264395 C307.63032,80.5978401 309.506317,84.3406413 310,86.4085389 L309.308843,87 C308.51895,86.9010128 306.742183,86.6055285 305.95229,86.6055285 C305.06366,86.6055285 304.273766,86.9010128 303.483873,86.8030105 C301.212436,86.5075262 296.078622,87 293.807679,86.4085389 C293.610205,86.1130546 293.313995,85.8180628 293.313995,85.4235912 C293.313995,83.4536959 294.202625,81.2873034 293.511469,79.5143976 C292.820312,77.8399866 294.103889,76.9535336 293.511469,75.2791226 C293.215259,74.3926697 292.721575,72.0287952 292.524102,71.1423423 C291.339262,67.3995411 290.944315,63.5582452 289.759475,59.815444 C289.068318,57.5500643 288.673371,55.1866823 287.982215,52.9208102 C287.587268,51.6408707 286.797375,50.3604387 286.106218,48.8830172 C285.810008,50.1634492 285.908745,51.1483969 285.908745,52.0348498 C285.908745,53.7092608 285.810008,55.3831794 286.007481,56.9595882 C286.106218,58.7320015 285.810008,60.6038946 285.908745,62.376308 C286.106218,64.1492138 285.810008,65.8236248 285.908745,67.5965307 C285.908745,69.172447 286.007481,70.846858 286.007481,72.5212691 C286.007481,74.3926697 285.612534,72.9152481 285.908745,74.7866487 C285.513798,76.0670807 286.797375,78.3324604 286.698638,79.6128924 C286.599901,80.8933244 289.364528,84.2421465 289.364528,85.4235912 C289.364528,85.719568 289.265792,86.0150523 289.265792,86.4085389 C285.316324,87.0980023 278.503494,86.6055285 274.554027,86.7045157 C273.56666,86.1130546 271,87.4924738 271,85.8180628 C271.197473,84.6356331 272.974734,80.203861 272.974734,79.0219238 C272.974734,77.8399866 274.159574,75.968586 274.159574,74.7866487 C274.159574,72.6197638 274.159574,70.9453528 274.060343,68.7784679 C274.060343,67.7935202 273.86287,66.8085725 273.9621,65.8236248 C274.060343,64.8386772 273.9621,63.9522242 273.9621,63.0662638 C273.86287,61.7853393 274.257817,60.5049074 274.159574,59.2244754 C274.060343,57.3530748 274.45529,55.4821667 274.257817,53.5122713 C274.060343,51.4433887 274.257817,49.4739858 274.257817,47.4055957 C274.257817,45.4357003 274.159574,43.4658049 274.159574,41.5944043 C274.159574,38.8365508 274.257817,36.1771921 274.257817,33.5178333 C274.257817,32.9268647 274.356553,32.4343909 274.45529,31.8434223 C274.554027,30.3660008 274.948973,28.7900845 274.356553,27.2141682 C274.159574,26.8201891 274.356553,26.1307257 274.257817,25.6382519 C274.060343,24.2598176 274.45529,22.8803984 274.159574,21.5019641 C273.9621,20.2215321 274.159574,18.7441106 274.159574,17.3651838 C274.159574,16.0847519 274.060343,14.8043199 274.159574,13.5238879 C274.159574,12.1449611 273.072977,12.0464664 273.072977,10.6675396 C273.072977,8.79613901 271.29621,5.44731689 271,3.37892675 C271.197473,2.68946338 271.394453,2.19698954 271.691157,2 Z" id="Fill-16" fill="#FFFFFF"></path>
                <path d="M334.397328,54.994664 C334.298247,54.7974038 334.59549,54.5015136 334.298247,54.2056234 C334.100085,54.0083632 334.199166,53.6138429 334.199166,53.4165828 C334.001004,52.0357617 333.406519,45.822067 333.109276,44.5398761 C333.208357,43.2576851 333.109276,42.4686445 332.712952,40.4965361 C332.712952,39.9042625 332.316628,34.1842113 332.118466,33.691061 C332.019385,33.3951707 332.019385,31.323446 331.920305,31.126679 C331.920305,29.9431181 331.523981,26.8855858 331.325819,26.0965452 C331.226738,25.8992851 331.127657,25.8992851 330.929495,25.8992851 C330.731333,26.1951753 330.632252,26.3924354 330.632252,26.7869557 L330.235929,32.7047602 C330.33501,33.3951707 330.037767,33.986458 330.136848,34.7754986 C329.641443,36.1563197 329.3442,41.1864535 329.146038,42.4686445 C328.749715,44.441246 328.353391,52.6275422 327.758905,54.5015136 L327.758905,54.7974038 C328.056148,55.3891843 328.056148,55.9809647 327.758905,56.4741151 C327.461662,57.1645256 327.758905,57.7563061 327.758905,58.3480865 C327.758905,59.9261677 327.16442,61.5042489 326.966258,63.0823301 C328.947876,62.9837001 333.208357,63.4768504 335.090894,62.7864399 C334.892733,60.1234279 334.793652,57.5590459 334.397328,54.994664 M329.245119,74.5229257 C328.155229,74.5229257 326.074529,74.3256655 325.975448,74.4242956 C325.579125,74.8188159 325.579125,74.8188159 325.380963,76.4955272 C325.281882,78.6653888 326.371772,80.0462099 326.371772,82.2160715 C326.371772,83.3010023 327.659824,85.2736038 327.362581,86.3585347 C327.263501,86.753055 326.768096,86.851685 326.17361,86.6544249 C325.281882,86.3585347 321.417725,86.6544249 320.525997,86.851685 C318.445297,87.0494383 315.076545,87.0494383 312.996341,86.851685 C312.699098,86.753055 312.401855,86.753055 312.203694,86.851685 C311.411046,87.0494383 310.023913,86.6544249 310.023913,86.3585347 C309.825751,85.9635212 310.915641,83.4977693 311.212884,82.5114686 C311.708289,81.2297708 312.401855,78.7640189 312.599522,77.3831978 C312.797684,76.298267 312.996341,76.1996369 313.293089,75.2138293 C313.590331,73.8325151 313.590331,73.2412278 313.689908,71.8599136 C313.98715,69.5919151 314.680717,67.5201904 314.977464,65.2521918 L315.374284,62.4905497 C315.671526,60.320688 315.671526,58.0521963 316.463678,55.9809647 C316.562759,55.5864444 316.662336,55.1919241 316.562759,54.7974038 C316.562759,52.6275422 317.058164,50.5563106 317.256326,48.386449 C317.454488,46.3152174 317.851307,44.3426159 317.851307,42.2713843 C317.851307,41.778234 317.949893,41.2850836 318.14855,40.7919332 C318.445297,40.2001528 318.346712,39.6083723 318.445297,38.9179618 C318.643459,37.2412505 318.643459,35.4659092 319.039783,33.7891979 C319.237945,32.9020204 319.931511,31.8165964 319.733349,31.0280489 C319.436107,28.9568174 320.228754,28.6609272 320.525997,25.1102445 C320.525997,24.1239437 320.625078,22.9403828 320.724159,21.9540821 C320.922321,20.6718911 321.120482,19.7842204 321.120482,18.2061392 C321.120482,16.7266881 321.814049,14.5568264 322.111292,13.965046 C321.91313,13.5705257 321.318644,13.7677858 321.516806,11.400664 C321.714968,10.3157332 320.228754,6.66642046 319.634268,4.10203851 C319.535187,3.70751821 319.337521,2.91847761 319.535187,2.62308054 C319.733349,2.42532724 321.318644,2.12993016 321.714968,2.22806709 C322.309454,2.52445046 323.102101,2.42532724 323.795668,2.32719031 C324.786477,2.22806709 329.245119,2.52445046 330.136848,2.42532724 C330.43409,2.42532724 330.830414,2.42532724 331.028576,2.32719031 C331.920305,1.93217686 332.911114,1.93217686 333.802842,2.12993016 C334.694571,2.32719031 335.586299,2.32719031 336.478028,2.32719031 C336.77527,2.32719031 338.360565,2.22806709 338.657808,2.52445046 C339.054132,2.91847761 339.252294,2.82034069 339.549537,3.31349106 C339.747698,3.80664143 339.747698,4.89107911 339.846779,5.48335271 C340.044941,7.06094076 340.342184,8.73765203 340.441265,10.3157332 C340.540346,10.9075137 340.441265,11.5979242 340.738508,12.0910746 C340.93667,12.5842249 340.540346,13.3732655 341.134832,13.6691558 C341.332993,15.8390174 342.02656,17.910249 342.02656,20.0801106 C341.927479,21.2636715 342.224722,22.4472324 342.323803,23.6307933 C342.621046,25.800655 342.621046,27.9705166 343.11645,30.1403783 C343.512774,32.5070069 343.710936,34.9727588 343.909098,37.3403737 C344.007683,37.7344009 344.007683,38.1289212 344.206341,38.5239346 C344.602664,40.1015227 344.602664,41.6796039 344.701745,43.2576851 C344.800826,44.2439858 344.899907,45.2302866 345.098069,46.1179573 C345.395312,47.4987783 345.395312,48.8795993 345.593474,50.2604204 L346.187959,53.712473 C346.386121,55.3891843 346.881526,57.0658956 346.881526,58.8412369 C346.881526,60.0247978 347.079688,61.2083587 347.376931,62.3919196 C347.575092,62.9837001 347.575092,63.5749874 347.575092,64.167261 C347.475516,65.1535617 347.673678,66.0407392 347.970921,67.02704 C348.36774,68.0133407 348.268659,68.9015045 348.36774,69.8873121 L348.96173,75.2138293 C349.061306,76.1996369 349.358549,75.8051166 349.556711,76.9886775 C349.754873,77.9749783 351.339673,83.4977693 351.736492,84.2873031 C351.835077,85.0768368 352.330482,86.4566716 351.636915,86.4566716 C351.438754,86.4566716 351.042925,86.6544249 350.844268,86.556288 C349.853954,85.7667542 348.466325,86.753055 347.376931,86.1612745 L347.27785,86.1612745 C345.890717,86.556288 343.611855,86.0631376 342.224722,86.1612745 L336.77527,86.3585347 C336.676189,86.3585347 336.478028,86.1612745 336.378947,86.1612745 C334.793652,86.4566716 334.793652,86.4566716 334.793652,84.9772205 L335.189975,83.1042353 C335.388137,82.611085 335.487218,81.4270309 335.68538,80.9338805 C335.883542,80.1448399 336.577109,78.7640189 336.279866,77.9749783 C336.081704,76.8900475 336.676189,77.4818279 336.478028,76.3968971 C336.279866,75.7069797 336.279866,75.016076 335.982623,74.2275286 C334.694571,74.2275286 331.821224,74.4242956 329.245119,74.5229257" id="Fill-18" fill="#FFFFFF"></path>
                <path d="M368.392195,22.2060162 C368.489745,24.7754648 367.999547,27.5425634 368.489745,30.112012 C368.489745,30.4084869 368.587784,30.7049617 368.587784,31.0014365 C368.489745,31.6932112 368.686314,33.0767605 368.392195,33.7685351 C368.097587,34.7567846 368.979942,35.7450341 368.489745,36.8321085 C369.274551,36.7332835 369.666708,37.1285833 370.156906,37.3262332 C371.528968,37.0297584 372.803971,37.0297584 373.979954,37.4250582 C375.352507,36.2391588 376.921138,35.3497343 377.607905,33.5708852 C377.509865,33.3732353 377.509865,33.1755854 377.509865,32.9779355 C377.313296,31.7920361 377.705454,30.6061368 377.411336,29.5190623 C376.921138,27.7402133 377.411336,25.4672395 377.509865,23.4907405 L377.509865,22.9966157 C377.509865,22.7989659 377.411336,22.601316 377.313296,22.502491 C377.019668,21.4154166 377.509865,20.3283421 377.313296,19.1424428 C377.215257,18.0558625 376.823099,16.869469 376.62751,15.6835696 L375.940744,15.091114 C375.058879,14.3000203 374.176524,13.7070706 372.803971,14.0035455 C372.313774,14.1028645 371.627498,14.1028645 371.038771,14.0035455 C370.254945,13.7070706 369.176511,13.8058956 368.294156,13.8058956 C368.294156,15.091114 369.077981,20.2295172 367.901998,20.8224669 C368.294156,21.0201168 368.392195,21.6130665 368.392195,22.2060162 M353.980395,2.14504581 C356.333342,2.04622086 361.627473,2.04622086 363.98042,2.14504581 C364.470617,2.24387076 364.960814,2.14504581 365.352972,2.04622086 C367.411801,1.84857097 369.470139,2.34269571 371.528968,2.44152065 C372.803971,2.44152065 374.176524,2.63917055 375.450546,2.34269571 C377.313296,1.84857097 378.980457,2.44152065 380.744677,2.7379955 C381.627032,2.9356454 382.705466,3.42977014 383.489782,4.22036972 C384.470177,5.2086192 385.64665,5.99921879 386.333417,7.18511817 C387.411361,9.3587729 388.391755,11.6322408 388.587834,14.2011954 C388.685874,15.6835696 388.979992,17.1659438 388.979992,18.648318 C389.078031,21.2177667 388.783913,23.7872153 388.783913,26.356664 C388.685874,28.1355131 388.685874,29.9143621 388.881952,31.6932112 C389.078031,35.3497343 388.685874,39.0057632 386.627045,42.1681616 C385.450571,43.9470106 383.979979,45.5287039 382.313309,46.8129341 C381.136835,47.7028528 379.568694,47.9988335 378.195651,48.2953084 C375.156918,48.888258 372.215734,48.888258 368.979942,48.7894331 C368.979942,50.1734765 368.882393,51.4577067 368.979942,52.6436061 C369.077981,53.3353807 369.077981,53.9283304 368.882393,54.5212801 C368.784353,55.2130547 368.882393,55.7071795 369.274551,56.3001292 C368.686314,56.7942539 368.784353,57.3872036 368.686314,58.0789782 C368.686314,59.1660527 368.489745,60.2531271 368.392195,61.3402015 C368.392195,62.7237508 368.686314,64.0084751 368.784353,65.3920244 C368.979942,67.2696984 368.979942,69.0485475 368.784353,70.8273965 C368.587784,72.0132959 368.882393,73.1991953 368.882393,74.5827446 C368.686314,74.7799003 368.587784,75.2740251 368.686314,75.7681498 C369.077981,78.3380926 369.470139,77.3498431 369.568179,79.8204668 C369.568179,80.7093972 371.725537,84.7612201 371.627498,85.6506446 C371.430928,86.2435943 371.23534,86.5400692 370.745142,86.935369 C368.979942,86.935369 363.88238,87.1330189 362.01963,86.8370381 C360.35296,86.5400692 355.647065,87.1330189 353.784316,86.6388941 L353.196079,85.8487887 C353.196079,85.7494696 354.176474,83.378165 354.176474,83.081196 C354.078434,81.8957907 355.647065,80.0181167 355.450987,78.8322173 C355.156868,77.0533683 356.039223,76.9540492 356.039223,75.0768693 C355.941184,73.2975261 355.941184,72.4085957 356.039223,70.5309217 C356.039223,69.0485475 356.333342,67.5661732 356.235302,66.083799 C355.941184,63.0202256 356.529421,59.8578273 356.039223,56.7942539 C356.62746,54.8177549 356.235302,52.742431 356.235302,50.7659321 C356.137263,47.109409 356.62746,43.4528859 356.62746,39.7968569 L356.62746,34.6579596 C356.62746,31.6932112 356.529421,28.7284627 356.62746,25.7637143 C356.7255,23.3919155 356.529421,21.0201168 356.529421,18.648318 C356.62746,16.2765193 356.333342,16.4741692 356.333342,14.2011954 C356.333342,13.2129459 355.254908,12.9169652 355.254908,11.038797 C355.254908,10.5446723 354.568631,8.56866744 354.568631,8.17336765 C354.470592,6.78981837 353.882355,4.41801962 353,3.13329529 C353.294118,2.7379955 353.686276,2.44152065 353.980395,2.14504581" id="Fill-20" fill="#FFFFFF"></path>
            </g>
        </g>
    </g>
</svg>