<?xml version="1.0" encoding="UTF-8"?>
<svg width="159px" height="158px" viewBox="0 0 159 158" version="1.1" xmlns="http://www.w3.org/2000/svg" xmlns:xlink="http://www.w3.org/1999/xlink">
    <!-- Generator: Sketch 48.1 (47250) - http://www.bohemiancoding.com/sketch -->
    <title>poop</title>
    <desc>Created with Sketch.</desc>
    <defs>
        <polygon id="path-1" points="0.117411217 0.596 16.6730183 0.596 16.6730183 16.4725173 0.117411217 16.4725173"></polygon>
        <polygon id="path-3" points="0.277367484 0.106080893 4.9135034 0.106080893 4.9135034 2 0.277367484 2"></polygon>
    </defs>
    <g id="Desktop-1366" stroke="none" stroke-width="1" fill="none" fill-rule="evenodd" transform="translate(-84.000000, -1253.000000)">
        <g id="poop" transform="translate(84.000000, 1252.000000)">
            <path d="M111.685858,91 L124.5,91 C133.612698,91 141,98.3873016 141,107.5 C141,112.373348 138.887257,116.753239 135.527742,119.7737 C143.884839,122.172045 150,129.871886 150,139 C150,150.045695 141.045695,159 130,159 L29,159 C17.954305,159 9,150.045695 9,139 C9,128.388378 17.264362,119.707001 27.7078869,119.041069 C24.7954292,116.065658 23,111.992501 23,107.5 C23,98.3873016 30.3873016,91 39.5,91 L42.8025948,91 C38.793112,89.2035256 36,85.1779459 36,80.5 C36,74.1487254 41.1487254,69 47.5,69 L89.7966516,69 C101.128077,68.2151856 106.437209,65.429615 105.724047,60.6432879 C104.433237,51.9801207 99.8186639,49.622669 102.771356,47.4967914 C105.724047,45.3709137 116.031757,50.1260907 120.483174,60.6432879 C124.934591,71.1604852 124.013409,80.5068676 113.392382,89.7957161 C112.843847,90.2754499 112.275005,90.6768779 111.685858,91 Z" id="Combined-Shape" fill="#3A333F"></path>
            <g id="Page-1">
                <g id="Group-3" transform="translate(54.000000, 0.404300)">
                    <mask id="mask-2" fill="white">
                        <use xlink:href="#path-1"></use>
                    </mask>
                    <g id="Clip-2"></g>
                    <path d="M15.3146,7.4551 C15.7936,8.4951 14.2086,10.6591 11.1696,12.1011 C9.9606,12.6741 8.7306,13.0171 7.6676,13.1141 C8.6756,12.0091 9.5016,10.2571 9.9126,8.2461 C9.9766,7.9331 10.0256,7.6251 10.0676,7.3201 C11.2036,6.8891 12.3206,6.6511 13.2516,6.6511 C13.7466,6.6511 14.1886,6.7161 14.5536,6.8491 C14.9376,6.9881 15.1936,7.1921 15.3146,7.4551 M3.9436,6.9481 C4.3956,4.7401 5.4006,2.8491 6.5026,2.1311 C6.7716,1.9561 7.0236,1.8681 7.2556,1.8681 C7.3206,1.8681 7.3816,1.8751 7.4426,1.8881 C8.5626,2.1301 9.3396,4.6951 8.6646,7.9901 L8.6646,7.9911 C8.2136,10.1981 7.2106,12.0891 6.1076,12.8091 C5.7656,13.0331 5.4516,13.1151 5.1686,13.0551 C4.0476,12.8091 3.2686,10.2411 3.9436,6.9481 M6.8196,16.4341 C10.6776,16.7071 13.9366,15.4961 14.0956,13.7241 C14.1426,13.2111 13.9176,12.7091 13.4906,12.2451 C15.9416,10.5971 17.1906,8.4851 16.4706,6.9231 C16.2076,6.3481 15.6946,5.9081 14.9896,5.6511 C13.7716,5.2081 12.0186,5.3251 10.1856,5.9261 C10.2656,3.1221 9.3376,0.9941 7.7126,0.6431 C7.0946,0.5111 6.4356,0.6551 5.8086,1.0631 C4.4146,1.9721 3.2206,4.1291 2.6956,6.6921 C2.4066,8.1021 2.3496,9.4291 2.4886,10.5711 C1.1116,11.0601 0.2076,11.8201 0.1236,12.7311 C-0.0374,14.5001 2.9626,16.1601 6.8196,16.4341" id="Fill-1" fill="#000000" mask="url(#mask-2)"></path>
                </g>
                <path d="M64.0675,7.7246 C64.0255,8.0296 63.9765,8.3366 63.9125,8.6506 C63.5015,10.6616 62.6755,12.4126 61.6675,13.5186 C62.7305,13.4216 63.9615,13.0786 65.1705,12.5056 C68.2085,11.0636 69.7935,8.8996 69.3145,7.8596 C69.1935,7.5966 68.9375,7.3926 68.5535,7.2526 C68.1885,7.1206 67.7465,7.0556 67.2525,7.0556 C66.3205,7.0556 65.2035,7.2926 64.0675,7.7246" id="Fill-4" fill="#FFFFFF"></path>
                <path d="M59.1691,13.459 C59.4511,13.52 59.7661,13.438 60.1071,13.214 C61.2101,12.493 62.2141,10.603 62.6641,8.396 L62.6641,8.395 C63.3401,5.1 62.5631,2.534 61.4421,2.292 C61.3821,2.279 61.3201,2.272 61.2561,2.272 C61.0231,2.272 60.7721,2.36 60.5031,2.535 C59.4001,3.253 58.3961,5.145 57.9431,7.353 C57.2691,10.646 58.0481,13.214 59.1691,13.459" id="Fill-6" fill="#FFFFFF"></path>
                <path d="M74.2834,53.3867 C73.9224,53.4017 73.6394,53.7067 73.6534,54.0697 C73.6684,54.4217 73.9584,54.6987 74.3094,54.6987 L74.3364,54.6987 C75.6514,54.6477 76.9674,54.5827 78.2814,54.5067 C78.6434,54.4867 78.9204,54.1757 78.8984,53.8137 C78.8784,53.4507 78.5314,53.1747 78.2054,53.1967 C76.8984,53.2727 75.5914,53.3347 74.2834,53.3867" id="Fill-8" fill="#000000"></path>
                <path d="M98.215,8.9785 C98.237,8.9785 98.261,8.9775 98.283,8.9755 C99.583,8.8405 100.886,8.7235 102.19,8.6225 C102.551,8.5945 102.821,8.2785 102.793,7.9165 C102.766,7.5555 102.456,7.2755 102.088,7.3135 C100.773,7.4155 99.46,7.5345 98.149,7.6685 C97.788,7.7065 97.526,8.0295 97.563,8.3895 C97.598,8.7275 97.883,8.9785 98.215,8.9785" id="Fill-10" fill="#000000"></path>
                <path d="M152.5841,13.4541 C153.8991,13.9841 154.9151,14.6141 155.6901,15.3781 C155.8181,15.5041 155.9851,15.5661 156.1511,15.5661 C156.3211,15.5661 156.4901,15.5011 156.6191,15.3711 C156.8731,15.1121 156.8701,14.6971 156.6121,14.4421 C155.7111,13.5551 154.5541,12.8331 153.0741,12.2371 C152.7411,12.1001 152.3551,12.2641 152.2211,12.6001 C152.0851,12.9361 152.2471,13.3191 152.5841,13.4541" id="Fill-12" fill="#000000"></path>
                <path d="M90.4044,9.9951 C90.4384,9.9951 90.4724,9.9931 90.5074,9.9871 C91.7984,9.7851 93.0924,9.5991 94.3894,9.4311 C94.7494,9.3841 95.0034,9.0541 94.9564,8.6941 C94.9084,8.3341 94.5844,8.0891 94.2194,8.1281 C92.9114,8.2991 91.6064,8.4861 90.3034,8.6901 C89.9454,8.7461 89.7004,9.0821 89.7574,9.4401 C89.8074,9.7651 90.0874,9.9951 90.4044,9.9951" id="Fill-14" fill="#000000"></path>
                <path d="M82.6574,11.4199 C82.7024,11.4199 82.7484,11.4159 82.7944,11.4059 C84.0724,11.1359 85.3544,10.8819 86.6404,10.6459 C86.9984,10.5799 87.2334,10.2379 87.1684,9.8819 C87.1034,9.5239 86.7564,9.2869 86.4044,9.3549 C85.1064,9.5929 83.8124,9.8489 82.5224,10.1209 C82.1684,10.1959 81.9414,10.5449 82.0154,10.8989 C82.0814,11.2079 82.3534,11.4199 82.6574,11.4199" id="Fill-16" fill="#000000"></path>
                <path d="M66.4328,53.5479 C66.0708,53.5479 65.7768,53.8429 65.7778,54.2049 C65.7778,54.5679 66.0718,54.8599 66.4338,54.8599 L66.4348,54.8599 C67.7518,54.8589 69.0688,54.8439 70.3858,54.8179 C70.7478,54.8109 71.0368,54.5109 71.0288,54.1479 C71.0218,53.7859 70.7318,53.5039 70.3598,53.5049 C69.0508,53.5309 67.7428,53.5459 66.4328,53.5479" id="Fill-18" fill="#000000"></path>
                <path d="M74.9982,13.2529 C75.0542,13.2529 75.1112,13.2459 75.1682,13.2309 C76.4312,12.8929 77.6972,12.5709 78.9692,12.2679 C79.3212,12.1829 79.5392,11.8289 79.4552,11.4769 C79.3712,11.1229 79.0112,10.9099 78.6642,10.9899 C77.3812,11.2979 76.1022,11.6209 74.8282,11.9629 C74.4772,12.0569 74.2702,12.4159 74.3642,12.7669 C74.4422,13.0599 74.7082,13.2529 74.9982,13.2529" id="Fill-20" fill="#000000"></path>
                <path d="M86.0334,52.5928 C84.7314,52.7178 83.4284,52.8308 82.1224,52.9318 C81.7604,52.9588 81.4894,53.2748 81.5174,53.6358 C81.5444,53.9808 81.8314,54.2418 82.1714,54.2418 C82.1884,54.2418 82.2054,54.2418 82.2214,54.2398 C83.5374,54.1398 84.8484,54.0268 86.1604,53.8998 C86.5204,53.8638 86.7854,53.5438 86.7504,53.1828 C86.7164,52.8218 86.3884,52.5658 86.0334,52.5928" id="Fill-22" fill="#000000"></path>
                <path d="M63.1515,54.1836 C63.1585,53.8216 62.8695,53.5226 62.5065,53.5156 C61.1985,53.4926 59.8895,53.4556 58.5815,53.4096 C58.2045,53.4086 57.9155,53.6796 57.9015,54.0416 C57.8885,54.4046 58.1725,54.7086 58.5345,54.7216 C59.8505,54.7686 61.1675,54.8046 62.4835,54.8286 L62.4955,54.8286 C62.8525,54.8286 63.1455,54.5416 63.1515,54.1836" id="Fill-24" fill="#000000"></path>
                <path d="M124.5324,45.1816 C123.2764,45.5496 122.0164,45.9046 120.7544,46.2476 C120.4034,46.3436 120.1974,46.7036 120.2924,47.0536 C120.3724,47.3466 120.6364,47.5376 120.9264,47.5376 C120.9824,47.5376 121.0404,47.5316 121.0974,47.5156 C122.3704,47.1696 123.6374,46.8116 124.9014,46.4416 C125.2494,46.3396 125.4484,45.9746 125.3464,45.6266 C125.2444,45.2796 124.8814,45.0736 124.5324,45.1816" id="Fill-26" fill="#000000"></path>
                <path d="M125.8,7.3379 C124.486,7.2339 123.169,7.1469 121.852,7.0769 C121.494,7.0369 121.182,7.3359 121.162,7.6979 C121.143,8.0599 121.421,8.3689 121.783,8.3879 C123.089,8.4569 124.394,8.5439 125.696,8.6469 C125.714,8.6489 125.732,8.6489 125.749,8.6489 C126.088,8.6489 126.375,8.3879 126.403,8.0439 C126.431,7.6829 126.161,7.3659 125.8,7.3379" id="Fill-28" fill="#000000"></path>
                <path d="M116.9572,47.2441 C115.6872,47.5631 114.4152,47.8711 113.1412,48.1671 C112.7872,48.2491 112.5672,48.6011 112.6492,48.9551 C112.7202,49.2591 112.9902,49.4631 113.2882,49.4631 C113.3382,49.4631 113.3882,49.4581 113.4372,49.4461 C114.7202,49.1481 116.0002,48.8391 117.2772,48.5171 C117.6292,48.4291 117.8422,48.0721 117.7542,47.7211 C117.6652,47.3691 117.3082,47.1551 116.9572,47.2441" id="Fill-30" fill="#000000"></path>
                <path d="M149.7003,11.8594 C149.7863,11.5074 149.5693,11.1524 149.2173,11.0674 C147.9343,10.7554 146.6483,10.4634 145.3583,10.1874 C145.0123,10.1144 144.6563,10.3374 144.5803,10.6924 C144.5043,11.0474 144.7293,11.3954 145.0853,11.4704 C146.3633,11.7444 147.6373,12.0354 148.9083,12.3424 C148.9603,12.3554 149.0123,12.3614 149.0633,12.3614 C149.3593,12.3614 149.6283,12.1604 149.7003,11.8594" id="Fill-32" fill="#000000"></path>
                <path d="M117.8996,6.918 C116.5806,6.883 115.2616,6.864 113.9436,6.863 C113.5816,6.863 113.2876,7.156 113.2876,7.519 C113.2876,7.882 113.5806,8.176 113.9436,8.176 C115.2506,8.177 116.5566,8.195 117.8646,8.23 L117.8816,8.23 C118.2366,8.23 118.5286,7.948 118.5386,7.592 C118.5476,7.23 118.2616,6.928 117.8996,6.918" id="Fill-34" fill="#000000"></path>
                <path d="M110.005,6.9102 L109.988,6.9102 C108.67,6.9432 107.352,6.9932 106.035,7.0612 C105.673,7.0802 105.395,7.3892 105.413,7.7502 C105.431,8.1012 105.721,8.3732 106.067,8.3732 C106.079,8.3732 106.091,8.3732 106.102,8.3722 C107.408,8.3062 108.715,8.2562 110.022,8.2222 C110.384,8.2142 110.67,7.9122 110.661,7.5502 C110.652,7.1932 110.36,6.9102 110.005,6.9102" id="Fill-36" fill="#000000"></path>
                <path d="M141.4796,9.4121 C140.1826,9.1701 138.8826,8.9451 137.5806,8.7381 C137.2266,8.6761 136.8856,8.9261 136.8296,9.2841 C136.7726,9.6411 137.0166,9.9781 137.3756,10.0351 C138.6666,10.2401 139.9546,10.4631 141.2396,10.7031 C141.2796,10.7111 141.3206,10.7141 141.3606,10.7141 C141.6696,10.7141 141.9456,10.4941 142.0046,10.1781 C142.0716,9.8221 141.8356,9.4781 141.4796,9.4121" id="Fill-38" fill="#000000"></path>
                <path d="M139.4035,40.1807 C138.3305,40.6067 137.1655,41.0407 135.7355,41.5507 C135.3935,41.6717 135.2155,42.0477 135.3375,42.3887 C135.4325,42.6587 135.6855,42.8257 135.9555,42.8257 C136.0285,42.8257 136.1025,42.8137 136.1745,42.7867 C137.6205,42.2737 138.7995,41.8327 139.8875,41.4017 C140.2245,41.2677 140.3895,40.8857 140.2565,40.5487 C140.1225,40.2107 139.7405,40.0487 139.4035,40.1807" id="Fill-40" fill="#000000"></path>
                <path d="M133.6662,8.1689 C132.3592,7.9949 131.0502,7.8389 129.7372,7.6999 C129.4002,7.6779 129.0552,7.9239 129.0162,8.2849 C128.9792,8.6459 129.2392,8.9689 129.6002,9.0069 C130.9002,9.1439 132.1982,9.2979 133.4942,9.4699 C133.5232,9.4739 133.5522,9.4759 133.5812,9.4759 C133.9052,9.4759 134.1872,9.2349 134.2302,8.9049 C134.2782,8.5459 134.0262,8.2169 133.6662,8.1689" id="Fill-42" fill="#000000"></path>
                <path d="M132.0255,42.833 C130.7845,43.248 129.5395,43.651 128.2905,44.043 C127.9445,44.151 127.7525,44.52 127.8605,44.865 C127.9485,45.146 128.2075,45.325 128.4865,45.325 C128.5505,45.325 128.6175,45.315 128.6825,45.295 C129.9395,44.901 131.1925,44.496 132.4415,44.077 C132.7865,43.963 132.9705,43.591 132.8555,43.247 C132.7415,42.902 132.3665,42.717 132.0255,42.833" id="Fill-44" fill="#000000"></path>
                <path d="M146.4142,36.8359 C145.3482,37.4659 144.2262,38.0569 142.9842,38.6419 C142.6562,38.7959 142.5162,39.1869 142.6702,39.5149 C142.7812,39.7529 143.0182,39.8919 143.2642,39.8919 C143.3572,39.8919 143.4532,39.8719 143.5432,39.8289 C144.8222,39.2269 145.9802,38.6169 147.0822,37.9669 C147.3942,37.7819 147.4982,37.3799 147.3132,37.0669 C147.1292,36.7559 146.7262,36.6519 146.4142,36.8359" id="Fill-46" fill="#000000"></path>
                <path d="M152.463,32.1191 C151.599,33.0281 150.64,33.8911 149.612,34.6841 C149.325,34.9061 149.273,35.3181 149.494,35.6051 C149.623,35.7721 149.817,35.8601 150.014,35.8601 C150.154,35.8601 150.295,35.8161 150.415,35.7231 C151.495,34.8901 152.505,33.9811 153.414,33.0231 C153.664,32.7611 153.653,32.3451 153.391,32.0961 C153.128,31.8451 152.712,31.8561 152.463,32.1191" id="Fill-48" fill="#000000"></path>
                <path d="M54.6603,53.2266 C53.5413,53.1646 52.4233,53.0916 51.3033,53.0116 C50.9713,52.9666 50.6283,53.2566 50.6013,53.6196 C50.5753,53.9806 50.8473,54.2946 51.2093,54.3206 C52.3353,54.4026 53.4613,54.4746 54.5883,54.5376 C54.5993,54.5386 54.6123,54.5386 54.6253,54.5386 C54.9713,54.5386 55.2603,54.2676 55.2793,53.9176 C55.3003,53.5566 55.0223,53.2466 54.6603,53.2266" id="Fill-50" fill="#000000"></path>
                <path d="M109.3068,49.0166 C108.0278,49.2886 106.7438,49.5476 105.4578,49.7956 C105.1018,49.8646 104.8698,50.2086 104.9378,50.5646 C104.9978,50.8786 105.2738,51.0966 105.5808,51.0966 C105.6228,51.0966 105.6638,51.0926 105.7058,51.0846 C106.9998,50.8346 108.2908,50.5746 109.5798,50.3016 C109.9348,50.2266 110.1608,49.8776 110.0858,49.5226 C110.0098,49.1666 109.6608,48.9406 109.3068,49.0166" id="Fill-52" fill="#000000"></path>
                <path d="M158.6847,18.1455 C158.5977,17.7925 158.2387,17.5835 157.8897,17.6655 C157.5387,17.7515 157.3237,18.1075 157.4097,18.4595 C157.5757,19.1345 157.6607,19.8705 157.6607,20.6435 C157.6607,21.1265 157.6267,21.6275 157.5627,22.1325 C157.5167,22.4925 157.7717,22.8215 158.1307,22.8675 C158.1597,22.8705 158.1867,22.8725 158.2147,22.8725 C158.5397,22.8725 158.8227,22.6305 158.8657,22.2985 C158.9367,21.7395 158.9727,21.1825 158.9727,20.6435 C158.9727,19.7635 158.8757,18.9235 158.6847,18.1455" id="Fill-54" fill="#000000"></path>
                <path d="M157.4591,25.4063 C157.1211,25.2733 156.7411,25.4383 156.6081,25.7763 C156.1591,26.9163 155.5661,28.0473 154.8471,29.1373 C154.6461,29.4393 154.7301,29.8463 155.0331,30.0473 C155.1451,30.1203 155.2701,30.1553 155.3941,30.1553 C155.6071,30.1553 155.8161,30.0523 155.9421,29.8603 C156.7121,28.6943 157.3481,27.4813 157.8291,26.2573 C157.9621,25.9203 157.7971,25.5393 157.4591,25.4063" id="Fill-56" fill="#000000"></path>
                <path d="M90.089,53.4834 C91.398,53.3324 92.704,53.1704 94.01,52.9944 C94.368,52.9464 94.621,52.6154 94.572,52.2554 C94.525,51.8964 94.194,51.6444 93.834,51.6934 C92.538,51.8674 91.239,52.0294 89.939,52.1784 C89.578,52.2204 89.32,52.5464 89.361,52.9064 C89.401,53.2414 89.684,53.4874 90.013,53.4874 C90.038,53.4874 90.064,53.4864 90.089,53.4834" id="Fill-58" fill="#000000"></path>
                <path d="M101.5968,50.501 C100.3068,50.724 99.0148,50.935 97.7218,51.134 C97.3638,51.188 97.1178,51.523 97.1728,51.882 C97.2228,52.206 97.5018,52.438 97.8208,52.438 C97.8538,52.438 97.8868,52.437 97.9208,52.431 C99.2218,52.231 100.5218,52.019 101.8198,51.794 C102.1768,51.732 102.4168,51.393 102.3548,51.036 C102.2928,50.678 101.9468,50.438 101.5968,50.501" id="Fill-60" fill="#000000"></path>
                <path d="M99.382,25.4189 L99.403,25.4189 C99.69,25.4249 99.978,25.5779 100.257,25.8739 C101.16,26.8299 101.694,28.9039 101.615,31.1579 C101.501,34.4999 100.155,36.8059 99.013,36.8059 L98.993,36.8059 C98.706,36.7989 98.418,36.6449 98.139,36.3489 C97.236,35.3899 96.703,33.3159 96.782,31.0649 L96.782,31.0639 C96.897,27.7229 98.238,25.4189 99.382,25.4189 M90.444,28.9829 C90.622,28.7569 90.918,28.6189 91.323,28.5729 C92.422,28.4449 94.036,29.0289 95.577,30.0819 C95.545,30.3889 95.52,30.6999 95.509,31.0209 C95.437,33.0719 95.828,34.9689 96.551,36.2789 C95.539,35.9359 94.423,35.3129 93.382,34.4729 C90.768,32.3579 89.735,29.8829 90.444,28.9829 M102.181,35.0209 C102.584,33.9429 102.839,32.6409 102.889,31.2019 C102.98,28.5859 102.325,26.2089 101.183,24.9989 C100.668,24.4549 100.062,24.1589 99.432,24.1459 C99.414,24.1459 99.398,24.1449 99.381,24.1449 C97.77,24.1449 96.378,26.0169 95.795,28.7059 C94.149,27.6899 92.467,27.1619 91.181,27.3079 C90.436,27.3919 89.835,27.6979 89.444,28.1939 C88.378,29.5459 89.098,31.8919 91.094,34.0679 C90.569,34.4189 90.233,34.8549 90.157,35.3629 C89.898,37.1249 92.78,39.0649 96.596,39.7049 C100.408,40.3429 103.714,39.4329 103.974,37.6759 C104.106,36.7709 103.405,35.8189 102.181,35.0209" id="Fill-62" fill="#000000"></path>
                <path d="M93.382,34.4727 C94.423,35.3127 95.539,35.9357 96.551,36.2797 C95.828,34.9687 95.437,33.0727 95.509,31.0207 C95.52,30.7007 95.545,30.3887 95.577,30.0817 C94.036,29.0297 92.422,28.4457 91.323,28.5737 C90.918,28.6187 90.622,28.7567 90.444,28.9837 C89.735,29.8827 90.768,32.3587 93.382,34.4727" id="Fill-64" fill="#FFFFFF"></path>
                <path d="M96.7824,31.0635 L96.7824,31.0645 C96.7034,33.3165 97.2354,35.3895 98.1384,36.3485 C98.4184,36.6445 98.7064,36.7985 98.9934,36.8055 L99.0124,36.8055 C100.1554,36.8055 101.5014,34.5005 101.6154,31.1585 C101.6934,28.9045 101.1604,26.8305 100.2574,25.8745 C99.9774,25.5785 99.6894,25.4245 99.4024,25.4185 L99.3824,25.4185 C98.2384,25.4185 96.8964,27.7225 96.7824,31.0635" id="Fill-66" fill="#FFFFFF"></path>
                <path d="M47.2912,17.5518 C46.0092,17.2438 44.7242,16.9528 43.4332,16.6788 C43.0852,16.5978 42.7302,16.8278 42.6532,17.1838 C42.5782,17.5378 42.8052,17.8868 43.1592,17.9628 C44.4382,18.2348 45.7142,18.5238 46.9842,18.8288 C47.0362,18.8408 47.0882,18.8468 47.1392,18.8468 C47.4352,18.8468 47.7042,18.6448 47.7762,18.3438 C47.8602,17.9908 47.6442,17.6368 47.2912,17.5518" id="Fill-68" fill="#000000"></path>
                <path d="M31.4367,54.2441 C30.2897,53.6141 29.1487,52.9731 28.0137,52.3201 C27.6967,52.1381 27.2967,52.2491 27.1177,52.5621 C26.9367,52.8771 27.0447,53.2781 27.3597,53.4591 C28.5017,54.1151 29.6507,54.7611 30.8037,55.3941 C30.9047,55.4501 31.0127,55.4751 31.1197,55.4751 C31.3517,55.4751 31.5767,55.3521 31.6957,55.1361 C31.8707,54.8171 31.7537,54.4191 31.4367,54.2441" id="Fill-70" fill="#000000"></path>
                <path d="M45.4738,61.2773 C44.2828,60.7353 43.0958,60.1823 41.9148,59.6183 C41.5898,59.4653 41.1978,59.6003 41.0388,59.9273 C40.8828,60.2553 41.0218,60.6473 41.3488,60.8033 C42.5368,61.3703 43.7318,61.9263 44.9288,62.4723 C45.0178,62.5123 45.1098,62.5313 45.2018,62.5313 C45.4508,62.5313 45.6888,62.3883 45.7988,62.1473 C45.9498,61.8173 45.8028,61.4273 45.4738,61.2773" id="Fill-72" fill="#000000"></path>
                <path d="M31.7404,14.6631 C30.4324,14.4901 29.1244,14.3341 27.8114,14.1951 C27.4624,14.1541 27.1284,14.4181 27.0904,14.7781 C27.0514,15.1391 27.3124,15.4621 27.6734,15.5001 C28.9734,15.6391 30.2724,15.7931 31.5684,15.9641 C31.5974,15.9681 31.6274,15.9701 31.6554,15.9701 C31.9794,15.9701 32.2614,15.7291 32.3044,15.3991 C32.3524,15.0401 32.0994,14.7101 31.7404,14.6631" id="Fill-74" fill="#000000"></path>
                <path d="M52.6808,64.3916 C51.4698,63.8956 50.2638,63.3866 49.0628,62.8686 C48.7298,62.7246 48.3438,62.8776 48.1998,63.2096 C48.0558,63.5426 48.2088,63.9296 48.5408,64.0736 C49.7498,64.5956 50.9638,65.1066 52.1828,65.6066 C52.2638,65.6396 52.3488,65.6556 52.4318,65.6556 C52.6898,65.6556 52.9348,65.5016 53.0388,65.2476 C53.1768,64.9126 53.0158,64.5296 52.6808,64.3916" id="Fill-76" fill="#000000"></path>
                <path d="M38.3888,57.8926 C37.2178,57.3066 36.0538,56.7086 34.8958,56.1006 C34.5728,55.9296 34.1778,56.0566 34.0088,56.3756 C33.8398,56.6976 33.9638,57.0946 34.2848,57.2626 C35.4508,57.8746 36.6218,58.4766 37.8008,59.0666 C37.8958,59.1136 37.9948,59.1356 38.0938,59.1356 C38.3348,59.1356 38.5668,59.0026 38.6818,58.7736 C38.8438,58.4496 38.7128,58.0546 38.3888,57.8926" id="Fill-78" fill="#000000"></path>
                <path d="M39.5539,15.9043 C38.2569,15.6633 36.9569,15.4393 35.6549,15.2323 C35.2979,15.1703 34.9609,15.4203 34.9039,15.7783 C34.8469,16.1353 35.0909,16.4723 35.4499,16.5293 C36.7409,16.7343 38.0289,16.9563 39.3139,17.1953 C39.3549,17.2033 39.3949,17.2063 39.4349,17.2063 C39.7439,17.2063 40.0209,16.9853 40.0789,16.6703 C40.1459,16.3133 39.9099,15.9703 39.5539,15.9043" id="Fill-80" fill="#000000"></path>
                <path d="M74.9377,72.0781 C73.6777,71.7221 72.4217,71.3531 71.1707,70.9731 C70.8197,70.8671 70.4577,71.0611 70.3517,71.4091 C70.2467,71.7571 70.4417,72.1231 70.7887,72.2281 C72.0487,72.6111 73.3127,72.9831 74.5807,73.3421 C74.6397,73.3581 74.7007,73.3661 74.7587,73.3661 C75.0457,73.3661 75.3087,73.1781 75.3907,72.8891 C75.4897,72.5401 75.2867,72.1771 74.9377,72.0781" id="Fill-82" fill="#000000"></path>
                <path d="M90.1955,75.7793 C88.9125,75.5203 87.6325,75.2483 86.3555,74.9643 C86.0055,74.8853 85.6515,75.1073 85.5725,75.4623 C85.4935,75.8153 85.7165,76.1673 86.0705,76.2453 C87.3555,76.5313 88.6445,76.8053 89.9355,77.0663 C89.9795,77.0753 90.0235,77.0793 90.0665,77.0793 C90.3725,77.0793 90.6465,76.8643 90.7095,76.5523 C90.7805,76.1973 90.5505,75.8513 90.1955,75.7793" id="Fill-84" fill="#000000"></path>
                <g id="Group-88" transform="translate(93.000000, 76.404300)">
                    <mask id="mask-4" fill="white">
                        <use xlink:href="#path-3"></use>
                    </mask>
                    <g id="Clip-87"></g>
                    <path d="M4.3644,0.6963 C3.2584,0.5123 2.1544,0.3203 1.0514,0.1193 C0.6894,0.0453 0.3524,0.2903 0.2884,0.6463 C0.2224,1.0033 0.4594,1.3453 0.8154,1.4103 C1.9264,1.6133 3.0374,1.8073 4.1494,1.9913 C4.1854,1.9973 4.2214,2.0003 4.2584,2.0003 C4.5734,2.0003 4.8514,1.7723 4.9044,1.4513 C4.9644,1.0923 4.7214,0.7553 4.3644,0.6963" id="Fill-86" fill="#000000" mask="url(#mask-4)"></path>
                </g>
                <path d="M67.424,69.7988 C66.18,69.3948 64.939,68.9788 63.7,68.5518 C63.362,68.4358 62.985,68.6138 62.866,68.9578 C62.747,69.2998 62.93,69.6738 63.273,69.7918 C64.517,70.2228 65.766,70.6408 67.018,71.0468 C67.085,71.0698 67.153,71.0788 67.221,71.0788 C67.498,71.0788 67.755,70.9028 67.845,70.6258 C67.957,70.2808 67.769,69.9098 67.424,69.7988" id="Fill-89" fill="#000000"></path>
                <path d="M60.0021,67.2344 C58.7731,66.7834 57.5481,66.3214 56.3281,65.8474 C55.9901,65.7164 55.6111,65.8844 55.4791,66.2224 C55.3481,66.5604 55.5161,66.9404 55.8541,67.0724 C57.0811,67.5474 58.3141,68.0134 59.5511,68.4664 C59.6251,68.4944 59.7011,68.5064 59.7761,68.5064 C60.0441,68.5064 60.2951,68.3424 60.3931,68.0764 C60.5181,67.7364 60.3431,67.3594 60.0021,67.2344" id="Fill-91" fill="#000000"></path>
                <path d="M54.9328,19.5986 C53.6678,19.2246 52.3998,18.8666 51.1248,18.5256 C50.7738,18.4306 50.4138,18.6406 50.3218,18.9896 C50.2278,19.3396 50.4348,19.6996 50.7858,19.7926 C52.0478,20.1316 53.3068,20.4866 54.5598,20.8586 C54.6218,20.8756 54.6848,20.8846 54.7458,20.8846 C55.0298,20.8846 55.2908,20.7006 55.3758,20.4146 C55.4788,20.0676 55.2808,19.7026 54.9328,19.5986" id="Fill-93" fill="#000000"></path>
                <path d="M82.5324,74.0742 C81.2614,73.7652 79.9914,73.4452 78.7254,73.1122 C78.3734,73.0212 78.0154,73.2292 77.9244,73.5802 C77.8314,73.9302 78.0414,74.2902 78.3914,74.3822 C79.6654,74.7172 80.9424,75.0392 82.2234,75.3492 C82.2754,75.3622 82.3274,75.3682 82.3794,75.3682 C82.6754,75.3682 82.9434,75.1672 83.0154,74.8662 C83.1014,74.5142 82.8854,74.1592 82.5324,74.0742" id="Fill-95" fill="#000000"></path>
                <path d="M69.5939,26.1338 C69.8519,26.1338 70.0959,25.9818 70.1999,25.7288 C70.3389,25.3938 70.1799,25.0098 69.8449,24.8708 C68.6269,24.3668 67.4019,23.8778 66.1689,23.4058 C65.8329,23.2798 65.4519,23.4458 65.3219,23.7848 C65.1919,24.1228 65.3619,24.5028 65.6999,24.6328 C66.9209,25.1008 68.1349,25.5838 69.3429,26.0838 C69.4249,26.1178 69.5099,26.1338 69.5939,26.1338" id="Fill-97" fill="#000000"></path>
                <path d="M58.7091,20.7715 C58.3591,20.6595 57.9931,20.8505 57.8821,21.1945 C57.7711,21.5395 57.9601,21.9095 58.3051,22.0215 C59.5491,22.4235 60.7871,22.8435 62.0201,23.2795 C62.0921,23.3045 62.1661,23.3165 62.2381,23.3165 C62.5091,23.3165 62.7621,23.1485 62.8571,22.8785 C62.9781,22.5375 62.7991,22.1625 62.4571,22.0415 C61.2131,21.6015 59.9651,21.1775 58.7091,20.7715" id="Fill-99" fill="#000000"></path>
                <path d="M1.383,25.9346 C1.333,25.5756 1.01,25.3326 0.642,25.3746 C0.282,25.4246 0.032,25.7566 0.082,26.1166 C0.265,27.4226 0.598,28.7506 1.072,30.0626 C1.169,30.3296 1.421,30.4956 1.69,30.4956 C1.764,30.4956 1.839,30.4826 1.913,30.4556 C2.254,30.3326 2.43,29.9556 2.307,29.6156 C1.863,28.3896 1.552,27.1516 1.383,25.9346" id="Fill-101" fill="#000000"></path>
                <path d="M24.6281,50.3311 C23.5051,49.6591 22.3901,48.9751 21.2811,48.2791 C20.9741,48.0881 20.5691,48.1801 20.3761,48.4871 C20.1841,48.7951 20.2761,49.1991 20.5841,49.3931 C21.7001,50.0921 22.8231,50.7801 23.9521,51.4581 C24.0591,51.5201 24.1751,51.5511 24.2891,51.5511 C24.5131,51.5511 24.7311,51.4371 24.8541,51.2321 C25.0391,50.9211 24.9391,50.5181 24.6281,50.3311" id="Fill-103" fill="#000000"></path>
                <path d="M80.0236,31.0068 C81.1886,31.5998 82.3446,32.2088 83.4936,32.8338 C83.5926,32.8878 83.7006,32.9128 83.8056,32.9128 C84.0396,32.9128 84.2646,32.7888 84.3836,32.5698 C84.5566,32.2518 84.4386,31.8538 84.1206,31.6798 C82.9616,31.0508 81.7946,30.4358 80.6196,29.8368 C80.2946,29.6708 79.9016,29.8018 79.7366,30.1238 C79.5726,30.4468 79.7006,30.8428 80.0236,31.0068" id="Fill-105" fill="#000000"></path>
                <path d="M72.9455,27.6299 C74.1405,28.1609 75.3275,28.7079 76.5085,29.2719 C76.5985,29.3149 76.6955,29.3349 76.7905,29.3349 C77.0355,29.3349 77.2695,29.1969 77.3825,28.9609 C77.5395,28.6339 77.3995,28.2419 77.0725,28.0859 C75.8825,27.5189 74.6835,26.9659 73.4785,26.4309 C73.1495,26.2829 72.7595,26.4329 72.6125,26.7639 C72.4655,27.0949 72.6145,27.4839 72.9455,27.6299" id="Fill-107" fill="#000000"></path>
                <path d="M4.3742,16.1328 C4.4892,16.1328 4.6052,16.1028 4.7112,16.0388 C5.6452,15.4788 6.7802,15.1048 8.1842,14.8978 C8.5432,14.8448 8.7902,14.5108 8.7372,14.1528 C8.6852,13.7928 8.3452,13.5438 7.9922,13.5988 C6.4142,13.8318 5.1192,14.2618 4.0352,14.9138 C3.7242,15.1008 3.6242,15.5038 3.8112,15.8148 C3.9342,16.0198 4.1502,16.1328 4.3742,16.1328" id="Fill-109" fill="#000000"></path>
                <path d="M17.9738,46.1621 C16.7028,45.3321 15.6728,44.6361 14.7288,43.9711 C14.4298,43.7631 14.0218,43.8341 13.8138,44.1301 C13.6058,44.4261 13.6758,44.8361 13.9728,45.0451 C14.9288,45.7191 15.9718,46.4231 17.2548,47.2621 C17.3668,47.3341 17.4908,47.3681 17.6138,47.3681 C17.8278,47.3681 18.0378,47.2641 18.1638,47.0711 C18.3628,46.7671 18.2778,46.3601 17.9738,46.1621" id="Fill-111" fill="#000000"></path>
                <path d="M23.8224,15.1426 C24.1614,15.1426 24.4484,14.8816 24.4754,14.5386 C24.5044,14.1766 24.2344,13.8606 23.8734,13.8316 C22.5584,13.7276 21.2424,13.6416 19.9254,13.5726 C19.5594,13.5476 19.2554,13.8306 19.2354,14.1936 C19.2164,14.5546 19.4944,14.8646 19.8564,14.8826 C21.1624,14.9526 22.4674,15.0386 23.7694,15.1406 C23.7874,15.1426 23.8044,15.1426 23.8224,15.1426" id="Fill-113" fill="#000000"></path>
                <path d="M2.0373,17.749 C1.7143,17.583 1.3203,17.709 1.1523,18.03 C0.5553,19.184 0.1683,20.528 0.0043,22.026 C-0.0357,22.387 0.2253,22.711 0.5853,22.75 C0.6093,22.753 0.6333,22.754 0.6573,22.754 C0.9873,22.754 1.2713,22.505 1.3083,22.169 C1.4553,20.833 1.7953,19.644 2.3183,18.634 C2.4853,18.312 2.3593,17.916 2.0373,17.749" id="Fill-115" fill="#000000"></path>
                <path d="M15.9552,14.7295 C16.3092,14.7295 16.6012,14.4475 16.6112,14.0905 C16.6212,13.7275 16.3352,13.4265 15.9732,13.4175 C14.6932,13.3835 13.4132,13.3675 12.1332,13.3675 L12.0172,13.3675 C11.6542,13.3675 11.3602,13.6615 11.3602,14.0235 C11.3602,14.3855 11.6542,14.6795 12.0172,14.6795 L12.1332,14.6795 C13.4012,14.6795 14.6702,14.6965 15.9372,14.7295 L15.9552,14.7295 Z" id="Fill-117" fill="#000000"></path>
                <path d="M8.6984,39.0762 C8.4374,38.8252 8.0224,38.8302 7.7694,39.0912 C7.5174,39.3512 7.5244,39.7662 7.7844,40.0192 C8.6984,40.9042 9.6794,41.7672 10.7874,42.6582 C10.9084,42.7562 11.0534,42.8032 11.1984,42.8032 C11.3894,42.8032 11.5804,42.7192 11.7104,42.5572 C11.9364,42.2752 11.8924,41.8622 11.6094,41.6352 C10.5354,40.7702 9.5824,39.9322 8.6984,39.0762" id="Fill-119" fill="#000000"></path>
                <path d="M3.924,33.0732 C3.744,32.7612 3.344,32.6502 3.028,32.8332 C2.714,33.0132 2.606,33.4152 2.787,33.7292 C3.447,34.8762 4.216,35.9962 5.07,37.0572 C5.2,37.2192 5.391,37.3022 5.582,37.3022 C5.727,37.3022 5.872,37.2562 5.993,37.1582 C6.277,36.9302 6.32,36.5172 6.094,36.2352 C5.281,35.2252 4.552,34.1622 3.924,33.0732" id="Fill-121" fill="#000000"></path>
            </g>
        </g>
    </g>
</svg>