<?xml version="1.0" encoding="UTF-8"?>
<svg width="141px" height="112px" viewBox="0 0 141 112" version="1.1" xmlns="http://www.w3.org/2000/svg" xmlns:xlink="http://www.w3.org/1999/xlink">
    <!-- Generator: Sketch 48.1 (47250) - http://www.bohemiancoding.com/sketch -->
    <title>Combined Shape</title>
    <desc>Created with Sketch.</desc>
    <defs></defs>
    <g id="Desktop-1366" stroke="none" stroke-width="1" fill="none" fill-rule="evenodd" transform="translate(-93.000000, -1299.000000)">
        <g id="poop" transform="translate(84.000000, 1252.000000)" fill="#3A333F">
            <path d="M111.685858,91 L124.5,91 C133.612698,91 141,98.3873016 141,107.5 C141,112.373348 138.887257,116.753239 135.527742,119.7737 C143.884839,122.172045 150,129.871886 150,139 C150,150.045695 141.045695,159 130,159 L29,159 C17.954305,159 9,150.045695 9,139 C9,128.388378 17.264362,119.707001 27.7078869,119.041069 C24.7954292,116.065658 23,111.992501 23,107.5 C23,98.3873016 30.3873016,91 39.5,91 L42.8025948,91 C38.793112,89.2035256 36,85.1779459 36,80.5 C36,74.1487254 41.1487254,69 47.5,69 L89.7966516,69 C101.128077,68.2151856 106.437209,65.429615 105.724047,60.6432879 C104.433237,51.9801207 99.8186639,49.622669 102.771356,47.4967914 C105.724047,45.3709137 116.031757,50.1260907 120.483174,60.6432879 C124.934591,71.1604852 124.013409,80.5068676 113.392382,89.7957161 C112.843847,90.2754499 112.275005,90.6768779 111.685858,91 Z" id="Combined-Shape"></path>
        </g>
    </g>
</svg>